<?xml version="1.0" standalone="no"?>
<!DOCTYPE svg PUBLIC "-//W3C//DTD SVG 1.1//EN" "http://www.w3.org/Graphics/SVG/1.1/DTD/svg11.dtd" >
<svg xmlns="http://www.w3.org/2000/svg">
<metadata>
This is a custom SVG webfont generated by Font Squirrel.
Copyright   : Copyright c 2010 by Process Type Foundry All rights reserved
Designer    : Eric Olson
Foundry     : Process Type Foundry
Foundry URL : httpwwwprocesstypefoundrycom
</metadata>
<defs>
<font id="Stratum2WebBlack" horiz-adv-x="1085" >
<font-face units-per-em="2048" ascent="1577" descent="-471" />
<missing-glyph horiz-adv-x="438" />
<glyph unicode=" "  horiz-adv-x="438" />
<glyph unicode="&#x09;" horiz-adv-x="438" />
<glyph unicode="&#xa0;" horiz-adv-x="438" />
<glyph unicode="!" horiz-adv-x="602" d="M143 0v350h316v-350h-316zM154 862v502h295v-502l-64 -405h-172z" />
<glyph unicode="&#x22;" horiz-adv-x="796" d="M92 760v604h223v-604h-223zM481 760v604h224v-604h-224z" />
<glyph unicode="#" horiz-adv-x="1382" d="M51 387l29 186h242l36 224h-241l28 186h244l64 381h202l-63 -381h280l64 381h203l-64 -381h236l-33 -186h-234l-34 -224h233l-29 -186h-235l-68 -387h-202l67 387h-280l-68 -387h-203l68 387h-242zM524 573h283l35 224h-283z" />
<glyph unicode="$" horiz-adv-x="1083" d="M154 213v180h266v-133q0 -20 20 -20h213q18 0 19 18v250q0 14 -15 20l-157 50l-201 65q-59 20 -97 68.5t-38 113.5v326q0 43 16.5 82t46 68.5t68.5 46t82 16.5h69v213h207v-213h66q43 0 82 -16.5t68.5 -46t46 -68.5t16.5 -82v-174h-258v127q0 20 -21 20h-200 q-20 0 -21 -20v-232q0 -14 14 -20q74 -23 168.5 -55.5l186.5 -61.5q76 -25 107.5 -66.5t31.5 -119.5v-336q0 -88 -57.5 -150.5t-155.5 -62.5h-74v-213h-207v213h-79q-47 0 -86 16.5t-67 46t-44 68.5t-16 82z" />
<glyph unicode="%" horiz-adv-x="2031" d="M123 791v374q0 41 16.5 77t45 63.5t65.5 43t78 15.5h295q41 0 77.5 -15.5t65.5 -43t45 -63.5t16 -77v-374q0 -41 -16 -77t-45 -63.5t-65.5 -43t-77.5 -15.5h-295q-41 0 -78 15.5t-65.5 43t-45 63.5t-16.5 77zM358 840q0 -27 27 -27h180q27 0 27 27v276q0 27 -27 27h-180 q-27 0 -27 -27v-276zM547 0l686 1364h250l-686 -1364h-250zM1204 199v374q0 41 16.5 77t45 63.5t65.5 43t78 15.5h295q41 0 78 -15.5t65.5 -43t45 -63.5t16.5 -77v-374q0 -41 -16.5 -77t-45 -63.5t-65.5 -43t-78 -15.5h-295q-41 0 -78 15.5t-65.5 43t-45 63.5t-16.5 77z M1440 248q0 -27 26 -27h181q27 0 26 27v276q0 27 -26 27h-181q-27 0 -26 -27v-276z" />
<glyph unicode="&#x26;" horiz-adv-x="1189" d="M133 213v346q0 55 23.5 86t60.5 47q-29 16 -51.5 46t-22.5 71v342q0 43 16.5 82t46.5 68.5t68.5 46t83.5 16.5h383q43 0 82 -16.5t68 -46t45 -68.5t16 -82v-170h-280v104q0 20 -21 21h-205q-20 0 -20 -21v-262q0 -20 20 -20h764v-246h-219v-344q0 -43 -16.5 -82 t-45 -68.5t-67.5 -46t-82 -16.5h-432q-45 0 -84 16.5t-68.5 46t-46 68.5t-16.5 82zM416 274q0 -20 20 -20h264q20 0 21 20v283h-285q-20 0 -20 -20v-263z" />
<glyph unicode="'" horiz-adv-x="407" d="M92 760v604h223v-604h-223z" />
<glyph unicode="(" horiz-adv-x="612" d="M143 -78v1323q0 90 58 148l116 112l105 99l201 -207l-137 -139l-50 -50q-4 -4 -7 -10t-3 -18v-1192q0 -12 3 -18.5t7 -10.5l50 -50l137 -138l-201 -207l-105 98l-116 113q-58 57 -58 147z" />
<glyph unicode=")" horiz-adv-x="612" d="M-10 -229l136 138l50 50q4 4 7 10t3 19v1192q0 12 -3 18t-7 10l-50 50l-136 139l200 207l105 -99l117 -112q57 -57 57 -148v-1323q0 -90 -57 -147l-117 -113l-105 -98z" />
<glyph unicode="*" horiz-adv-x="915" d="M61 922v149h261l-144 221l123 82l156 -239l155 239l123 -82l-145 -221h264v-149h-258l137 -211l-123 -80l-153 233l-154 -233l-123 80l135 211h-254z" />
<glyph unicode="+" horiz-adv-x="1038" d="M82 543v233h307v322h260v-322h307v-233h-307v-322h-260v322h-307z" />
<glyph unicode="," horiz-adv-x="532" d="M102 0v350h318v-350l-148 -285l-143 82l102 203h-129z" />
<glyph unicode="-" horiz-adv-x="663" d="M72 467v242h520v-242h-520z" />
<glyph unicode="." horiz-adv-x="583" d="M133 0v350h318v-350h-318z" />
<glyph unicode="/" horiz-adv-x="927" d="M51 -240l592 1624h234l-592 -1624h-234z" />
<glyph unicode="0" horiz-adv-x="1107" d="M133 213v938q0 43 16.5 82t46 68.5t68.5 46t82 16.5h416q43 0 82 -16.5t68.5 -46t46 -68.5t16.5 -82v-938q0 -43 -16.5 -82t-46 -68.5t-68.5 -46t-82 -16.5h-416q-43 0 -82 16.5t-68.5 46t-46 68.5t-16.5 82zM416 279q0 -20 20 -21h236q20 0 20 21v806q0 20 -20 21h-236 q-20 0 -20 -21v-806z" />
<glyph unicode="1" horiz-adv-x="782" d="M25 975v282l331 107h283v-1364h-283v1081z" />
<glyph unicode="2" horiz-adv-x="1050" d="M113 967v184q0 43 16 82t46 68.5t69 46t82 16.5h383q43 0 81.5 -16.5t68.5 -46t46.5 -68.5t16.5 -82v-367q0 -66 -30 -103.5t-91 -66.5l-269 -120q-102 -45 -120 -56q-16 -8 -17 -24v-156h533v-258h-815v481q0 43 12 73t33.5 50.5t53.5 36.5t71 33l116 49l105 45 l78.5 32.5t38.5 16.5q18 8 18 27v241q0 20 -21 21h-204q-20 0 -21 -21v-118h-280z" />
<glyph unicode="3" horiz-adv-x="1046" d="M102 991v160q0 43 16.5 82t45.5 68.5t67.5 46t81.5 16.5h385q45 0 84 -16.5t69 -46t46 -68.5t16 -82v-334q0 -41 -22.5 -70.5t-50.5 -46.5q37 -16 60.5 -46.5t23.5 -86.5v-354q0 -43 -17.5 -82t-46.5 -68.5t-67.5 -46t-83.5 -16.5h-396q-43 0 -81.5 16.5t-67.5 46 t-45.5 68.5t-16.5 82v184h275v-118q0 -20 20 -21h224q20 0 20 21v266q0 20 -20 20h-306v246h295q20 0 21 20v254q0 20 -21 21h-207q-20 0 -20 -21v-94h-281z" />
<glyph unicode="4" horiz-adv-x="1060" d="M20 311v238l535 815h274v-819h209v-234h-209v-311h-274v311h-535zM305 545h250v407z" />
<glyph unicode="5" horiz-adv-x="1052" d="M123 213v104h283v-38q0 -20 20 -21h205q20 0 20 21v278q0 18 -20 18q-8 0 -37 -1t-60.5 -4t-61.5 -7t-42 -10q-20 -10 -20 -31v-55l-285 14v883h788v-254h-505v-307q33 8 75.5 14t85.5 10l83 7.5t69 3.5q102 0 157.5 -59.5t55.5 -153.5v-412q0 -43 -16.5 -82t-46 -68.5 t-68.5 -46t-82 -16.5h-385q-43 0 -82 16.5t-68.5 46t-46 68.5t-16.5 82z" />
<glyph unicode="6" horiz-adv-x="1071" d="M133 213v938q0 43 16.5 82t46 68.5t68.5 46t82 16.5h387q43 0 82 -16.5t68.5 -46t46 -68.5t16.5 -82v-178h-276v112q0 20 -21 21h-213q-20 0 -20 -21v-360q35 10 80 20.5t91 18.5t88 13t70 5q102 0 157.5 -59t55.5 -154v-356q0 -43 -16 -82t-46 -68.5t-69 -46t-82 -16.5 h-399q-43 0 -82 16.5t-68.5 46t-46 68.5t-16.5 82zM416 272q0 -20 20 -20h219q20 0 21 20v228q0 20 -21 20q-8 0 -39 -5l-67 -11q-37 -6 -68.5 -13.5t-44.5 -13.5q-20 -10 -20 -31v-174z" />
<glyph unicode="7" horiz-adv-x="911" d="M31 1116v248h829v-227l-403 -1137h-283l399 1116h-542z" />
<glyph unicode="8" horiz-adv-x="1093" d="M127 213v350q0 55 22.5 86t57.5 49q-29 16 -50.5 45t-21.5 70v338q0 43 16.5 82t45 68.5t67.5 46t82 16.5h395q45 0 84 -16.5t69 -46t46 -68.5t16 -82v-338q0 -41 -22.5 -70.5t-50.5 -46.5q37 -16 60.5 -47t23.5 -86v-350q0 -43 -17.5 -82t-46.5 -68.5t-67.5 -46 t-83.5 -16.5h-414q-43 0 -82 16.5t-67.5 46t-45 68.5t-16.5 82zM410 279q0 -20 20 -21h234q20 0 20 21v266q0 20 -20 20h-234q-20 0 -20 -20v-266zM420 831q0 -10 7 -16q5 -5 12 -5q2 0 5 1h209q20 0 21 20v254q0 20 -21 21h-213q-20 0 -20 -21v-254z" />
<glyph unicode="9" horiz-adv-x="1071" d="M113 784v367q0 43 16 82t46 68.5t69 46t82 16.5h399q43 0 82 -16.5t68.5 -46t46 -68.5t16.5 -82v-938q0 -43 -16.5 -82t-46 -68.5t-68.5 -46t-82 -16.5h-393q-43 0 -82 16.5t-68.5 46t-46 68.5t-16.5 82v178h276v-119q0 -20 21 -20h219q20 0 20 20v357q-35 -10 -80 -20.5 t-91 -18.5t-88 -13.5t-70 -5.5q-102 0 -157.5 59.5t-55.5 153.5zM395 854q0 -20 21 -20q8 0 39 5l67 11q37 6 69 13t44 14q20 10 20 30v185q0 20 -20 20h-219q-20 0 -21 -20v-238z" />
<glyph unicode=":" horiz-adv-x="583" d="M133 0v350h318v-350h-318zM133 582v350h318v-350h-318z" />
<glyph unicode=";" horiz-adv-x="573" d="M123 0v350h317v-350l-147 -285l-143 82l102 203h-129zM123 582v350h317v-350h-317z" />
<glyph unicode="&#x3c;" horiz-adv-x="1079" d="M82 569v181l801 368l94 -209l-561 -250l561 -249l-94 -209z" />
<glyph unicode="=" horiz-adv-x="1038" d="M102 344v227h834v-227h-834zM102 748v227h834v-227h-834z" />
<glyph unicode="&#x3e;" horiz-adv-x="1079" d="M102 410l562 249l-562 250l95 209l800 -368v-181l-800 -368z" />
<glyph unicode="?" horiz-adv-x="987" d="M92 969v182q0 43 16.5 82t46 68.5t68.5 46t82 16.5h367q43 0 82 -16.5t68.5 -46t46 -68.5t16.5 -82v-348q0 -66 -31 -100.5t-90 -69.5l-105 -61l-57 -33q-16 -8 -16 -25v-78h-283v125q0 70 18.5 102.5t67.5 61.5l121 69l74 42q18 10 18 26v223q0 20 -20 21h-189 q-20 0 -20 -21v-116h-281zM289 0v322h317v-322h-317z" />
<glyph unicode="@" horiz-adv-x="1234" d="M133 197v970q0 39 14.5 74t40 62.5t60.5 44t78 16.5h573q43 0 78 -16.5t60.5 -44t40 -62.5t14.5 -74v-671h-195v39q-27 -10 -63.5 -20.5t-75.5 -19t-75 -13.5t-60 -5q-88 0 -135.5 51.5t-47.5 130.5v132q0 80 47.5 131t135.5 51q47 0 120.5 -8.5t145.5 -22.5v174 q0 66 -70 66h-409q-70 0 -70 -66v-868q0 -66 70 -66h591v-182h-675q-43 0 -78 16.5t-60.5 44t-40 62.5t-14.5 74zM651 666q0 -16 19 -17q6 0 34.5 4t62.5 11l64 12q31 6 41 10q16 4 17 23v61q0 16 -17 21q-25 2 -56.5 5t-62 4t-54 2t-29.5 1q-18 0 -19 -17v-120z" />
<glyph unicode="A" horiz-adv-x="1267" d="M37 0l446 1364h299l449 -1364h-303l-86 270h-420l-82 -270h-303zM510 532h246l-123 455z" />
<glyph unicode="B" horiz-adv-x="1189" d="M143 0v1364h701q45 0 84 -16.5t67.5 -46t46 -68.5t17.5 -82v-313q0 -41 -29 -80t-78 -56q41 -6 78 -41.5t37 -91.5v-356q0 -43 -17.5 -82t-46 -68.5t-67.5 -46t-84 -16.5h-709zM440 264h312q20 0 20 21v262q0 20 -22 20h-310v-303zM440 817h305q18 0 19 19v241 q0 23 -23 23h-301v-283z" />
<glyph unicode="C" horiz-adv-x="1165" d="M133 225v914q0 47 17.5 88t48 71.5t71.5 48t88 17.5h469q47 0 88 -17.5t72 -48t48.5 -71.5t17.5 -88v-254h-291v188q0 20 -21 21h-290q-20 0 -21 -21v-782q0 -20 21 -21h290q20 0 21 21v219h291v-285q0 -47 -17.5 -88t-48.5 -71.5t-72 -48t-88 -17.5h-469q-47 0 -88 17.5 t-71.5 48t-48 71.5t-17.5 88z" />
<glyph unicode="D" horiz-adv-x="1206" d="M143 0v1364h705q47 0 88 -17.5t71.5 -48t48 -71.5t17.5 -88v-914q0 -47 -17.5 -88t-48 -71.5t-71.5 -48t-88 -17.5h-705zM440 270h316q20 0 20 21v782q0 20 -20 21h-316v-824z" />
<glyph unicode="E" horiz-adv-x="1095" d="M143 0v1364h848v-270h-551v-260h508v-271h-508v-293h553v-270h-850z" />
<glyph unicode="F" horiz-adv-x="1054" d="M143 0v1364h861v-270h-564v-260h518v-271h-518v-563h-297z" />
<glyph unicode="G" horiz-adv-x="1177" d="M133 225v914q0 47 17.5 88t48 71.5t71.5 48t88 17.5h480q47 0 88 -17.5t71.5 -48t48 -71.5t17.5 -88v-205h-291v139q0 20 -20 21h-301q-20 0 -21 -21v-782q0 -20 21 -21h303q20 0 20 21v194h-192v258h483v-518q0 -47 -17.5 -88t-48 -71.5t-71.5 -48t-88 -17.5h-482 q-47 0 -88 17.5t-71.5 48t-48 71.5t-17.5 88z" />
<glyph unicode="H" horiz-adv-x="1273" d="M143 0v1364h297v-537h394v537h296v-1364h-296v557h-394v-557h-297z" />
<glyph unicode="I" horiz-adv-x="604" d="M154 0v1364h297v-1364h-297z" />
<glyph unicode="J" horiz-adv-x="1044" d="M51 225v224h291v-158q0 -20 20 -21h232q20 0 20 21v1073h297v-1139q0 -47 -17 -88t-48 -71.5t-72 -48t-88 -17.5h-410q-47 0 -88 17.5t-71.5 48t-48 71.5t-17.5 88z" />
<glyph unicode="K" horiz-adv-x="1198" d="M143 0v1364h297v-635l371 635h342l-408 -682l433 -682h-351l-387 635v-635h-297z" />
<glyph unicode="L" horiz-adv-x="1044" d="M143 0v1364h297v-1094h543v-270h-840z" />
<glyph unicode="M" horiz-adv-x="1544" d="M143 0v1364h287l342 -817l342 817h287v-1364h-287v717l-217 -506h-250l-217 506v-717h-287z" />
<glyph unicode="N" horiz-adv-x="1314" d="M143 0v1364h287l455 -799v799h286v-1364h-286l-455 795v-795h-287z" />
<glyph unicode="O" horiz-adv-x="1220" d="M133 225v914q0 47 17.5 88t48 71.5t71.5 48t88 17.5h504q47 0 88 -17.5t72 -48t48 -71.5t17 -88v-914q0 -47 -17 -88t-48 -71.5t-72 -48t-88 -17.5h-504q-47 0 -88 17.5t-71.5 48t-48 71.5t-17.5 88zM430 291q0 -20 21 -21h319q20 0 21 21v782q0 20 -21 21h-319 q-20 0 -21 -21v-782z" />
<glyph unicode="P" horiz-adv-x="1150" d="M143 0v1364h731q47 0 88.5 -17.5t72 -48t48 -71.5t17.5 -88v-414q0 -47 -17.5 -88t-48 -71.5t-71.5 -48t-89 -17.5h-434v-500h-297zM440 770h344q20 0 21 21v282q0 20 -21 21h-344v-324z" />
<glyph unicode="Q" horiz-adv-x="1220" d="M133 225v914q0 47 17.5 88t48 71.5t71.5 48t88 17.5h504q47 0 88 -17.5t72 -48t48 -71.5t17 -88v-914q0 -47 -17 -88t-48 -71.5t-72 -48t-88 -17.5h-108v-315h-287v315h-109q-47 0 -88 17.5t-71.5 48t-48 71.5t-17.5 88zM430 291q0 -20 21 -21h319q20 0 21 21v782 q0 20 -21 21h-319q-20 0 -21 -21v-782z" />
<glyph unicode="R" horiz-adv-x="1267" d="M143 0v1364h758q47 0 88 -17.5t72 -48t48 -71.5t17 -88v-412q0 -78 -45 -136.5t-116 -80.5l241 -510h-325l-238 502h-203v-502h-297zM440 772h371q20 0 20 21v280q0 20 -20 21h-371v-322z" />
<glyph unicode="S" horiz-adv-x="1153" d="M127 225v183h291v-117q0 -20 20 -21h287q20 0 20 21v190q0 20 -26 27l-117 34l-280 79q-92 27 -141.5 72.5t-49.5 140.5v305q0 47 17.5 88t48 71.5t71.5 48t88 17.5h451q47 0 88 -17.5t71.5 -48t48 -71.5t17.5 -88v-181h-291v115q0 20 -20 21h-275q-20 0 -20 -21v-176 q0 -12 6 -17.5t17 -9.5l109 -30l298 -84q88 -25 136 -72t48 -141v-318q0 -47 -17 -88t-48 -71.5t-72 -48t-88 -17.5h-463q-47 0 -88 17.5t-71.5 48t-48 71.5t-17.5 88z" />
<glyph unicode="T" horiz-adv-x="1103" d="M51 1094v270h1002v-270h-353v-1094h-297v1094h-352z" />
<glyph unicode="U" horiz-adv-x="1202" d="M133 225v1139h297v-1073q0 -20 21 -21h301q20 0 20 21v1073h297v-1139q0 -47 -17.5 -88t-48 -71.5t-71.5 -48t-88 -17.5h-486q-47 0 -88 17.5t-71.5 48t-48 71.5t-17.5 88z" />
<glyph unicode="V" horiz-adv-x="1159" d="M20 1364h295l265 -928l264 928h295l-412 -1364h-295z" />
<glyph unicode="W" horiz-adv-x="1617" d="M61 1364h291l99 -846l227 846h258l231 -846l99 846h290l-208 -1364h-299l-242 895l-238 -895h-299z" />
<glyph unicode="X" horiz-adv-x="1200" d="M61 0l371 692l-360 672h311l217 -408l217 408h311l-360 -672l371 -692h-312l-227 428l-227 -428h-312z" />
<glyph unicode="Y" d="M0 1364h313l230 -571l229 571h313l-393 -905v-459h-299v459z" />
<glyph unicode="Z" horiz-adv-x="1134" d="M113 0v268l557 828h-549v268h901v-268l-561 -828h571v-268h-919z" />
<glyph unicode="[" horiz-adv-x="618" d="M143 -258v1888h475v-246h-192v-1396h192v-246h-475z" />
<glyph unicode="\" horiz-adv-x="927" d="M51 1386h234l592 -1624h-234z" />
<glyph unicode="]" horiz-adv-x="618" d="M0 -12h193v1396h-193v246h475v-1888h-475v246z" />
<glyph unicode="^" horiz-adv-x="962" d="M51 752l338 612h186l336 -612l-188 -93l-242 465l-241 -465z" />
<glyph unicode="_" horiz-adv-x="827" d="M-4 -12h835v-105h-835v105z" />
<glyph unicode="`" horiz-adv-x="765" d="M113 1296l129 152l268 -229l-127 -150z" />
<glyph unicode="a" horiz-adv-x="1048" d="M113 193v153q0 94 55 153.5t158 59.5q57 0 145 -9t172 -26v178q0 20 -20 21h-211q-20 0 -21 -21v-43h-266v99q0 43 16.5 82t46 68.5t68.5 46t82 16.5h375q43 0 82 -16.5t68.5 -46t46 -68.5t16.5 -82v-758h-273v47q-33 -12 -77 -24.5t-90 -21.5t-89 -15t-71 -6 q-102 0 -157.5 59.5t-55.5 153.5zM389 213q0 -20 21 -20q8 0 38.5 5t65.5 12l67 14q32 7 42 12q20 6 20 26v55q0 23 -20 27q-29 2 -62 5t-63.5 5t-55 3t-32.5 1q-20 0 -21 -20v-125z" />
<glyph unicode="b" horiz-adv-x="1079" d="M133 0v1364h283v-461l79 27.5t94 29t92 22.5t73 9q102 0 157.5 -59.5t55.5 -153.5v-585q0 -94 -55.5 -153.5t-157.5 -59.5q-29 0 -75 9t-96.5 23.5t-97.5 30.5l-79 29v-72h-273zM416 336q0 -20 20 -27q10 -4 44 -15l72 -23l71 -20q33 -9 41 -9q20 0 20 20v447 q0 20 -20 20q-8 0 -41 -9l-71 -21q-38 -11 -72 -22t-44 -15q-20 -6 -20 -27v-299z" />
<glyph unicode="c" horiz-adv-x="1007" d="M113 213v545q0 43 16 82t46 68.5t69 46t82 16.5h383q43 0 81.5 -16.5t68.5 -46t46.5 -68.5t16.5 -82v-156h-277v90q0 20 -20 21h-209q-20 0 -21 -21v-413q0 -20 21 -21h209q20 0 20 21v104h277v-170q0 -43 -16.5 -82t-46.5 -68.5t-68.5 -46t-81.5 -16.5h-383 q-43 0 -82 16.5t-69 46t-46 68.5t-16 82z" />
<glyph unicode="d" horiz-adv-x="1079" d="M113 193v585q0 94 55 153.5t158 59.5q29 0 72.5 -9t92 -22.5t94.5 -29l79 -27.5v461h282v-1364h-272v72l-80 -29q-47 -16 -97.5 -30.5t-96.5 -23.5t-74 -9q-102 0 -157.5 59.5t-55.5 153.5zM395 262q0 -20 21 -20q8 0 41 9l70 20q38 11 72 22.5t44 15.5q20 6 21 27v299 q0 21 -21 27q-10 4 -44 15t-72 22l-70 21q-33 9 -41 9q-20 0 -21 -20v-447z" />
<glyph unicode="e" horiz-adv-x="1024" d="M113 213v545q0 43 16 82t46 68.5t69 46t82 16.5h374q43 0 82 -16.5t69 -46t46 -68.5t16 -82v-357h-518v-137q0 -20 21 -20h207q20 0 20 20v43h272v-94q0 -43 -16 -82t-46 -68.5t-69 -46t-82 -16.5h-376q-43 0 -82 16.5t-69 46t-46 68.5t-16 82zM395 604h252v101 q0 20 -20 20h-211q-20 0 -21 -20v-101z" />
<glyph unicode="f" horiz-adv-x="720" d="M51 729v242h129v198q0 43 16.5 82t46 69t68.5 46t82 16h297v-245h-207q-20 0 -20 -21v-145h215v-242h-215v-729h-283v729h-129z" />
<glyph unicode="g" horiz-adv-x="1069" d="M113 233v545q0 94 55 153.5t158 59.5q29 0 74.5 -9t96 -23.5t97.5 -30.5l80 -29v72h272v-1147q0 -43 -16.5 -82t-46 -68.5t-68.5 -46t-82 -16.5h-524v231h434q16 0 21 17v250l-79 -27.5t-94.5 -29t-92.5 -23t-72 -9.5q-102 0 -157.5 59.5t-55.5 153.5zM391 303 q0 -20 21 -20q8 0 42 9l71 20l73 23q35 11 45 15q20 6 21 27v258q0 20 -21 27q-10 4 -45 15l-73 22l-71 21q-34 9 -42 9q-20 0 -21 -20v-406z" />
<glyph unicode="h" d="M133 0v1364h283v-461l79 27.5t93 29t90 22.5t72 9q102 0 157.5 -59.5t55.5 -153.5v-778h-283v684q0 20 -21 21q-8 0 -39 -10l-69 -20l-71 -23q-34 -11 -44 -15q-20 -6 -20 -27v-610h-283z" />
<glyph unicode="i" horiz-adv-x="548" d="M133 0v971h283v-971h-283zM133 1092v305h283v-305h-283z" />
<glyph unicode="j" horiz-adv-x="548" d="M-43 -119h156q20 0 20 21v1069h283v-1123q0 -43 -16.5 -81.5t-46 -68.5t-68.5 -46.5t-82 -16.5h-246v246zM133 1092v305h283v-305h-283z" />
<glyph unicode="k" horiz-adv-x="997" d="M133 0v1364h283v-844l246 451h301l-258 -484l266 -487h-314l-241 457v-457h-283z" />
<glyph unicode="l" horiz-adv-x="548" d="M133 0v1364h283v-1364h-283z" />
<glyph unicode="m" horiz-adv-x="1632" d="M133 0v971h273v-72l78 29q46 16 95.5 30.5t95.5 23.5t75 9q63 0 109 -24.5t73 -67.5q33 14 83 30.5t103 31t101.5 22.5t76.5 8q102 0 157.5 -59.5t55.5 -153.5v-778h-282v684q0 20 -21 21q-8 0 -40 -10l-68 -20l-71 -23q-34 -11 -44 -15q-20 -6 -20 -27v-610h-283v684 q0 20 -21 21q-8 0 -39 -10l-69 -20l-71 -23q-34 -11 -44 -15q-20 -6 -20 -27v-610h-283z" />
<glyph unicode="n" d="M133 0v971h273v-72l78 29q46 16 95.5 30.5t95.5 23.5t75 9q102 0 157.5 -59.5t55.5 -153.5v-778h-283v684q0 20 -21 21q-8 0 -39 -10l-69 -20l-71 -23q-34 -11 -44 -15q-20 -6 -20 -27v-610h-283z" />
<glyph unicode="o" horiz-adv-x="1077" d="M113 213v545q0 43 16 82t46 68.5t69 46t82 16.5h426q43 0 81.5 -16.5t68.5 -46t46.5 -68.5t16.5 -82v-545q0 -43 -16.5 -82t-46.5 -68.5t-68.5 -46t-81.5 -16.5h-426q-43 0 -82 16.5t-69 46t-46 68.5t-16 82zM395 279q0 -20 21 -21h246q20 0 20 21v413q0 20 -20 21h-246 q-20 0 -21 -21v-413z" />
<glyph unicode="p" horiz-adv-x="1079" d="M133 -389v1360h273v-72l79 29q47 16 97.5 30.5t96.5 23.5t75 9q102 0 157.5 -59.5t55.5 -153.5v-585q0 -94 -55.5 -153.5t-157.5 -59.5q-29 0 -73 9t-92 22.5t-94 28.5t-79 28v-457h-283zM416 336q0 -20 20 -27q10 -4 44 -15l72 -23l71 -20q33 -9 41 -9q20 0 20 20v447 q0 20 -20 20q-8 0 -41 -9l-71 -21q-38 -11 -72 -22t-44 -15q-20 -6 -20 -27v-299z" />
<glyph unicode="q" horiz-adv-x="1079" d="M113 193v585q0 94 55 153.5t158 59.5q29 0 74.5 -9t96 -23.5t97.5 -30.5l80 -29v72h272v-1360h-282v457l-79 -27.5t-94.5 -29t-92.5 -22.5t-72 -9q-102 0 -157.5 59.5t-55.5 153.5zM395 262q0 -20 21 -20q8 0 41 9l70 20q38 11 72 22.5t44 15.5q20 6 21 27v299 q0 21 -21 27q-10 4 -44 15t-72 22l-70 21q-33 9 -41 9q-20 0 -21 -20v-447z" />
<glyph unicode="r" horiz-adv-x="706" d="M133 0v971h273v-105q25 14 59 31l72 34l73 33l66 27l14 -270q-35 -16 -76 -38l-77 -42l-65 -36q-28 -15 -36 -21q-8 -4 -14 -11.5t-6 -21.5v-551h-283z" />
<glyph unicode="s" horiz-adv-x="985" d="M102 213v96h273v-49q0 -20 20 -20h215q18 0 19 18v51q0 14 -15 21l-31 10l-61 18l-107 33l-173 53q-59 18 -97.5 67.5t-38.5 115.5v131q0 43 16.5 82t46.5 68.5t68.5 46t81.5 16.5h363q43 0 82 -16.5t68.5 -46t46 -68.5t16.5 -82v-103h-264v56q0 20 -21 20h-209 q-20 0 -20 -20v-43q0 -14 14 -21l369 -110q76 -23 107.5 -66t31.5 -121v-137q0 -88 -57.5 -150.5t-155.5 -62.5h-375q-47 0 -86 16.5t-66.5 46t-44 68.5t-16.5 82z" />
<glyph unicode="t" horiz-adv-x="716" d="M20 729v242h144v248h282v-248h211v-242h-211v-463q0 -20 21 -20h184v-246h-274q-43 0 -82 16.5t-68.5 46t-46 68.5t-16.5 82v516h-144z" />
<glyph unicode="u" d="M123 193v778h283v-692q0 -20 20 -21q8 0 40 9l69 21l70 22q34 11 44 16q20 6 21 26v619h282v-971h-272v72l-80 -29q-47 -16 -96 -30.5t-94 -23.5t-74 -9q-102 0 -157.5 59.5t-55.5 153.5z" />
<glyph unicode="v" horiz-adv-x="933" d="M4 971h283l180 -656l180 656h283l-303 -971h-320z" />
<glyph unicode="w" horiz-adv-x="1296" d="M41 971h272l66 -518l137 518h258l139 -518l70 518h272l-168 -971h-280l-162 571l-162 -571h-278z" />
<glyph unicode="x" horiz-adv-x="997" d="M31 0l315 487l-311 484h321l144 -246l141 246h322l-312 -484l316 -487h-320l-147 248l-150 -248h-319z" />
<glyph unicode="y" horiz-adv-x="942" d="M10 971h283l180 -656l180 656h283l-303 -971l-121 -389h-285l97 350z" />
<glyph unicode="z" horiz-adv-x="962" d="M113 0v250l391 471h-387v250h731v-250l-393 -471h405v-250h-747z" />
<glyph unicode="{" horiz-adv-x="643" d="M113 553v184l104 72l-65 522q-2 17 -2 33q0 73 39 119q48 55 147 71q25 4 52.5 9.5t61.5 10.5l76 11q43 6 101 17l37 -234q-27 -4 -59 -10l-61 -11l-55 -10l-36 -6q-20 -4 -17 -26l33 -265l19 -155q7 -55 10.5 -77t3.5 -28q4 -20 -6.5 -34.5t-24.5 -24.5l-109 -76 l109 -76q14 -10 24.5 -24.5t6.5 -34.5q0 -6 -3 -28l-11 -76l-19 -156l-33 -264q-4 -23 17 -27l36 -6l55 -9q30 -5 61.5 -11.5t58.5 -10.5l-37 -233q-57 8 -100.5 15l-77 12t-61.5 10.5t-52 9.5q-98 16 -147 71q-40 46 -39 120q0 16 2 32l65 522z" />
<glyph unicode="|" horiz-adv-x="495" d="M164 -410v2048h168v-2048h-168z" />
<glyph unicode="}" horiz-adv-x="643" d="M-20 -78q27 4 58.5 10.5t60.5 11.5l55 9l36 6q20 4 17 27l-33 264l-19 156q-7 55 -10.5 76.5t-3.5 27.5q-4 20 6.5 34.5t24.5 24.5l109 76l-109 76q-14 10 -24.5 24.5t-6.5 34.5q0 6 3 27.5l11 77.5l19 155l33 265q4 23 -17 26l-36 6l-55 10q-30 5 -61.5 11t-57.5 10 l36 234q57 -10 101 -17l77 -11q34 -5 61.5 -10t51.5 -10q98 -16 147 -71q40 -46 39 -119q0 -16 -1 -33l-66 -522l104 -72v-184l-104 -72l66 -522q2 -17 1 -32q0 -73 -39 -120q-48 -55 -147 -71q-25 -4 -52.5 -9.5t-61 -10.5l-76.5 -12t-101 -15z" />
<glyph unicode="~" horiz-adv-x="935" d="M31 408l63 184q23 70 86 101q37 19 76 19q27 0 55 -10l336 -112q16 -4 23 10l37 117l198 -68l-61 -184q-23 -70 -86 -101q-37 -19 -77 -19q-28 0 -56 9l-336 113q-16 4 -21 -10l-37 -117z" />
<glyph unicode="&#xa1;" horiz-adv-x="602" d="M143 621v350h316v-350h-316zM154 109l59 405h172l64 -405v-498h-295v498z" />
<glyph unicode="&#xa2;" horiz-adv-x="1003" d="M113 408v544q0 43 16 82t46 69t69 46t82 16h77v199h203v-199h103q43 0 81.5 -16t68.5 -46t46.5 -69t16.5 -82v-153h-277v88q0 20 -20 20h-209q-20 0 -21 -20v-414q0 -20 21 -20h209q20 0 20 20v102h277v-167q0 -43 -16.5 -82t-46.5 -69t-68.5 -46t-81.5 -16h-103v-195 h-203v195h-77q-43 0 -82 16t-69 46t-46 69t-16 82z" />
<glyph unicode="&#xa3;" horiz-adv-x="1187" d="M51 0v244h225v932q0 43 16.5 81.5t46.5 68.5t68.5 46.5t81.5 16.5h433v-250h-342q-20 0 -21 -21v-235h309v-236h-309v-403h229q20 0 21 20v105h276v-156q0 -43 -16 -82t-46 -68.5t-69 -46t-82 -16.5h-821z" />
<glyph unicode="&#xa4;" horiz-adv-x="1345" d="M133 246l172 172v536l-172 172l158 158l172 -172h420l172 172l157 -158l-172 -172v-536l172 -172l-157 -158l-172 172h-420l-172 -172zM547 500q0 -14 14 -15h223q14 0 15 15v372q0 14 -15 15h-223q-14 0 -14 -15v-372z" />
<glyph unicode="&#xa5;" horiz-adv-x="1064" d="M72 1364h293l167 -596l168 596h293l-196 -553h166v-193h-234l-47 -135h281v-188h-289v-295h-283v295h-289v188h281l-49 135h-232v193h164z" />
<glyph unicode="&#xa6;" horiz-adv-x="495" d="M164 -410v854h168v-854h-168zM164 784v854h168v-854h-168z" />
<glyph unicode="&#xa7;" horiz-adv-x="1103" d="M123 301l67 229q12 -4 50 -15l90 -28l117 -35l130 -39l124 -38l108 -33q59 -18 97 -67.5t38 -114.5v-336q0 -43 -16.5 -82t-46 -68.5t-68.5 -46t-82 -16.5h-362q-43 0 -82 16.5t-69 46t-46 68.5t-16 82v151h264v-104q0 -20 20 -21h209q20 0 21 21v248q0 14 -15 20 q-12 4 -76 24l-149 45l-169 51zM160 815v336q0 43 16.5 82t46 68.5t68.5 46t82 16.5h362q43 0 82 -16.5t68.5 -46t46 -68.5t16.5 -82v-152h-264v105q0 20 -20 20h-209q-20 0 -21 -20v-248q0 -14 15 -20q12 -4 76 -24l149 -45l169 -51l138 -42l-68 -230l-49 16l-90 27 l-118 36l-129 39l-125 38l-107 33q-59 18 -97 67t-38 115z" />
<glyph unicode="&#xa8;" horiz-adv-x="1003" d="M195 1112v260h227v-260h-227zM582 1112v260h227v-260h-227z" />
<glyph unicode="&#xa9;" horiz-adv-x="1345" d="M133 211v942q0 41 16.5 79t46 67.5t67.5 47t81 17.5h657q43 0 81 -17.5t68 -47t46 -67.5t16 -79v-942q0 -41 -16 -80t-46 -67.5t-68 -46t-81 -17.5h-657q-43 0 -81 17.5t-67.5 46t-46 67.5t-16.5 80zM291 240q0 -41 26.5 -64.5t65.5 -23.5h580q39 0 65.5 23.5t26.5 64.5 v884q0 41 -27 64.5t-65 23.5h-580q-39 0 -65.5 -23.5t-26.5 -64.5v-884zM418 416v536q0 47 30.5 79t77.5 32h299q47 0 79 -32t32 -79v-143h-160v106h-198v-462h198v106h160v-143q0 -47 -32 -79t-79 -32h-299q-47 0 -77.5 32t-30.5 79z" />
<glyph unicode="&#xaa;" horiz-adv-x="657" d="M92 922v88q0 53 32 86.5t89 33.5q33 0 83 -5t97 -15v102q0 10 -12 11h-119q-12 0 -12 -11v-24h-152v55q0 49 36 85t87 36h211q51 0 87 -36t36 -85v-430h-156v27q-18 -8 -43.5 -15.5t-51 -12.5t-50.5 -8t-41 -3q-57 0 -89 34t-32 87zM250 940q0 -12 10 -12q6 0 23.5 3 t37 7t37 8t23.5 6q12 6 12 17v12q0 14 -12 14q-31 4 -71 6.5t-50 2.5t-10 -11v-53z" />
<glyph unicode="&#xab;" horiz-adv-x="1101" d="M92 487l258 410l191 -117l-183 -293l183 -288l-191 -117zM530 487l258 410l191 -117l-182 -293l182 -288l-191 -117z" />
<glyph unicode="&#xac;" horiz-adv-x="1110" d="M92 543v233h875v-555h-273v322h-602z" />
<glyph unicode="&#xad;" horiz-adv-x="663" d="M72 467v242h520v-242h-520z" />
<glyph unicode="&#xae;" horiz-adv-x="976" d="M102 705v505q0 61 42 107.5t114 46.5h457q76 0 117.5 -46t41.5 -108v-505q0 -66 -41.5 -112t-117.5 -46h-457q-72 0 -114 46t-42 112zM219 700q0 -23 12.5 -34t30.5 -11h451q18 0 31.5 11.5t13.5 33.5v510q0 20 -13.5 31.5t-31.5 11.5h-451q-18 0 -30.5 -11t-12.5 -32 v-510zM346 762v397h213q27 0 44.5 -19.5t17.5 -45.5v-121q0 -20 -12.5 -37.5t-33.5 -24.5l91 -149h-93l-92 145h-51v-145h-84zM430 987h100q8 0 9 8v76q0 8 -9 8h-100v-92z" />
<glyph unicode="&#xaf;" horiz-adv-x="1017" d="M195 1151v188h628v-188h-628z" />
<glyph unicode="&#xb0;" horiz-adv-x="563" d="M113 1087v203q0 31 21.5 52.5t49.5 21.5h195q29 0 50.5 -21.5t21.5 -52.5v-203q0 -31 -21.5 -52t-50.5 -21h-195q-29 0 -50 21t-21 52zM201 1114q0 -16 16 -16h129q16 0 16 16v150q0 16 -16 16h-129q-16 0 -16 -16v-150z" />
<glyph unicode="&#xb1;" horiz-adv-x="1058" d="M92 0v229h307v293h-307v234h307v321h260v-321h308v-234h-308v-293h308v-229h-875z" />
<glyph unicode="&#xb2;" horiz-adv-x="1445" d="M31 1364h1384l-692 -1384z" />
<glyph unicode="&#xb3;" horiz-adv-x="1445" d="M31 0l692 1384l692 -1384h-1384z" />
<glyph unicode="&#xb4;" horiz-adv-x="765" d="M256 1219l268 229l129 -152l-270 -227z" />
<glyph unicode="&#xb5;" d="M123 -389v1360h283v-692q0 -20 20 -21q8 0 40 9l69 21l70 22q34 11 44 16q20 6 21 26v619h282v-971h-272v72l-58.5 -22.5t-70.5 -24t-75 -21.5t-70 -16v-377h-283z" />
<glyph unicode="&#xb6;" horiz-adv-x="1179" d="M72 780v447q0 57 39 97t94 40h831v-1364h-207v1171h-137v-1423q0 -57 -39 -97t-96 -40h-229v172h127q31 0 30 33v827h-280q-55 0 -94 40t-39 97z" />
<glyph unicode="&#xb7;" horiz-adv-x="583" d="M133 449v350h318v-350h-318z" />
<glyph unicode="&#xb8;" horiz-adv-x="751" d="M195 -225l135 325l227 -47l-158 -364z" />
<glyph unicode="&#xb9;" horiz-adv-x="1589" d="M143 -20v1404l1405 -702z" />
<glyph unicode="&#xba;" horiz-adv-x="667" d="M92 934v309q0 49 35 85t86 36h242q49 0 84.5 -36t35.5 -85v-309q0 -51 -35.5 -86t-84.5 -35h-242q-51 0 -86 35t-35 86zM252 971q0 -12 12 -13h139q12 0 13 13v235q0 10 -13 11h-139q-12 0 -12 -11v-235z" />
<glyph unicode="&#xbb;" horiz-adv-x="1101" d="M123 199l182 288l-182 293l190 117l258 -410l-258 -405zM561 199l182 288l-182 293l191 117l258 -410l-258 -405z" />
<glyph unicode="&#xbc;" horiz-adv-x="1236" d="M133 0v971h971v-971h-971z" />
<glyph unicode="&#xbd;" horiz-adv-x="1650" d="M143 0v1364h1364v-1364h-1364z" />
<glyph unicode="&#xbe;" horiz-adv-x="1175" d="M133 -20v1011l1012 -506z" />
<glyph unicode="&#xbf;" horiz-adv-x="987" d="M102 172q0 66 31 100.5t90 69.5l105 60q45 26 57 34q16 8 16 25v78h283v-125q0 -35 -4 -59.5t-14.5 -43t-26.5 -33t-41 -28.5l-121 -69l-74 -42q-18 -10 -18 -26v-224q0 -20 21 -20h188q20 0 20 20v117h281v-182q0 -43 -16.5 -82t-46 -68.5t-68.5 -46t-82 -16.5h-367 q-43 0 -81.5 16.5t-68.5 46t-46.5 68.5t-16.5 82v348zM385 653v318h317v-318h-317z" />
<glyph unicode="&#xc0;" horiz-adv-x="1267" d="M37 0l446 1364h299l449 -1364h-303l-86 270h-420l-82 -270h-303zM395 1690l129 151l269 -229l-127 -150zM510 532h246l-123 455z" />
<glyph unicode="&#xc1;" horiz-adv-x="1267" d="M37 0l446 1364h299l449 -1364h-303l-86 270h-420l-82 -270h-303zM502 1612l268 229l129 -151l-270 -228zM510 532h246l-123 455z" />
<glyph unicode="&#xc2;" horiz-adv-x="1267" d="M37 0l446 1364h299l449 -1364h-303l-86 270h-420l-82 -270h-303zM334 1571l299 254l299 -254l-111 -135l-188 163l-187 -163zM510 532h246l-123 455z" />
<glyph unicode="&#xc3;" horiz-adv-x="1267" d="M37 0l446 1364h299l449 -1364h-303l-86 270h-420l-82 -270h-303zM317 1548l93 150q18 29 47.5 45t62.5 16q41 0 72 -20l67 -41l66 -41q18 -10 31 8l61 96l133 -84l-88 -143q-18 -29 -48 -45t-64 -16q-41 0 -72 20l-131 84q-23 14 -39 -10l-30 -49l-29 -52zM510 532h246 l-123 455z" />
<glyph unicode="&#xc4;" horiz-adv-x="1267" d="M37 0l446 1364h299l449 -1364h-303l-86 270h-420l-82 -270h-303zM326 1493v260h227v-260h-227zM510 532h246l-123 455zM713 1493v260h227v-260h-227z" />
<glyph unicode="&#xc5;" horiz-adv-x="1267" d="M37 0l446 1364h299l449 -1364h-303l-86 270h-420l-82 -270h-303zM461 1524v192q0 31 21.5 52.5t49.5 21.5h199q29 0 51.5 -21.5t22.5 -52.5v-192q0 -29 -22.5 -51.5t-51.5 -22.5h-199q-29 0 -50 22.5t-21 51.5zM510 532h246l-123 455zM567 1567q0 -16 17 -17h98 q16 0 16 17v106q0 16 -16 17h-98q-16 0 -17 -17v-106z" />
<glyph unicode="&#xc6;" horiz-adv-x="1718" d="M37 0l446 1364h1131v-270h-744l86 -260h615v-271h-527l97 -293h475v-270h-688l-86 270h-420l-82 -270h-303zM510 532h246l-123 455z" />
<glyph unicode="&#xc7;" horiz-adv-x="1165" d="M133 225v914q0 47 17.5 88t48 71.5t71.5 48t88 17.5h469q47 0 88 -17.5t72 -48t48.5 -71.5t17.5 -88v-254h-291v188q0 20 -21 21h-290q-20 0 -21 -21v-782q0 -20 21 -21h290q20 0 21 21v219h291v-285q0 -47 -17.5 -88t-48.5 -71.5t-72 -48t-88 -17.5h-108l-135 -311 l-205 86l92 225h-113q-47 0 -88 17.5t-71.5 48t-48 71.5t-17.5 88z" />
<glyph unicode="&#xc8;" horiz-adv-x="1095" d="M143 0v1364h848v-270h-551v-260h508v-271h-508v-293h553v-270h-850zM328 1690l129 151l268 -229l-127 -150z" />
<glyph unicode="&#xc9;" horiz-adv-x="1095" d="M143 0v1364h848v-270h-551v-260h508v-271h-508v-293h553v-270h-850zM395 1612l269 229l129 -151l-271 -228z" />
<glyph unicode="&#xca;" horiz-adv-x="1095" d="M143 0v1364h848v-270h-551v-260h508v-271h-508v-293h553v-270h-850zM285 1571l299 254l299 -254l-111 -135l-188 163l-187 -163z" />
<glyph unicode="&#xcb;" horiz-adv-x="1095" d="M143 0v1364h848v-270h-551v-260h508v-271h-508v-293h553v-270h-850zM260 1493v260h227v-260h-227zM647 1493v260h227v-260h-227z" />
<glyph unicode="&#xcc;" horiz-adv-x="604" d="M59 1690l129 151l269 -229l-127 -150zM154 0v1364h297v-1364h-297z" />
<glyph unicode="&#xcd;" horiz-adv-x="604" d="M154 0v1364h297v-1364h-297zM170 1612l268 229l129 -151l-270 -228z" />
<glyph unicode="&#xce;" horiz-adv-x="604" d="M4 1571l299 254l299 -254l-110 -135l-189 163l-186 -163zM154 0v1364h297v-1364h-297z" />
<glyph unicode="&#xcf;" horiz-adv-x="604" d="M-4 1493v260h227v-260h-227zM154 0v1364h297v-1364h-297zM383 1493v260h227v-260h-227z" />
<glyph unicode="&#xd0;" horiz-adv-x="1288" d="M82 559v236h143v569h705q47 0 88 -17.5t71.5 -48t48 -71.5t17.5 -88v-914q0 -47 -17.5 -88t-48 -71.5t-71.5 -48t-88 -17.5h-705v559h-143zM522 270h316q20 0 20 21v782q0 20 -20 21h-316v-299h185v-236h-185v-289z" />
<glyph unicode="&#xd1;" horiz-adv-x="1314" d="M143 0v1364h287l455 -799v799h286v-1364h-286l-455 795v-795h-287zM340 1548l92 150q18 29 48 45t63 16q41 0 71 -20l68 -41l66 -41q18 -10 30 8l62 96l133 -84l-88 -143q-18 -29 -48 -45t-65 -16q-41 0 -72 20l-131 84q-23 14 -39 -10l-29 -49l-30 -52z" />
<glyph unicode="&#xd2;" horiz-adv-x="1220" d="M133 225v914q0 47 17.5 88t48 71.5t71.5 48t88 17.5h504q47 0 88 -17.5t72 -48t48 -71.5t17 -88v-914q0 -47 -17 -88t-48 -71.5t-72 -48t-88 -17.5h-504q-47 0 -88 17.5t-71.5 48t-48 71.5t-17.5 88zM371 1690l129 151l268 -229l-127 -150zM430 291q0 -20 21 -21h319 q20 0 21 21v782q0 20 -21 21h-319q-20 0 -21 -21v-782z" />
<glyph unicode="&#xd3;" horiz-adv-x="1220" d="M133 225v914q0 47 17.5 88t48 71.5t71.5 48t88 17.5h504q47 0 88 -17.5t72 -48t48 -71.5t17 -88v-914q0 -47 -17 -88t-48 -71.5t-72 -48t-88 -17.5h-504q-47 0 -88 17.5t-71.5 48t-48 71.5t-17.5 88zM430 291q0 -20 21 -21h319q20 0 21 21v782q0 20 -21 21h-319 q-20 0 -21 -21v-782zM453 1612l268 229l129 -151l-270 -228z" />
<glyph unicode="&#xd4;" horiz-adv-x="1220" d="M133 225v914q0 47 17.5 88t48 71.5t71.5 48t88 17.5h504q47 0 88 -17.5t72 -48t48 -71.5t17 -88v-914q0 -47 -17 -88t-48 -71.5t-72 -48t-88 -17.5h-504q-47 0 -88 17.5t-71.5 48t-48 71.5t-17.5 88zM311 1571l299 254l299 -254l-110 -135l-189 163l-186 -163zM430 291 q0 -20 21 -21h319q20 0 21 21v782q0 20 -21 21h-319q-20 0 -21 -21v-782z" />
<glyph unicode="&#xd5;" horiz-adv-x="1220" d="M133 225v914q0 47 17.5 88t48 71.5t71.5 48t88 17.5h504q47 0 88 -17.5t72 -48t48 -71.5t17 -88v-914q0 -47 -17 -88t-48 -71.5t-72 -48t-88 -17.5h-504q-47 0 -88 17.5t-71.5 48t-48 71.5t-17.5 88zM293 1548l92 150q18 29 48 45t63 16q41 0 71 -20l68 -41l65 -41 q18 -10 31 8l62 96l133 -84l-88 -143q-18 -29 -48 -45t-65 -16q-41 0 -72 20l-131 84q-23 14 -39 -10l-29 -49l-30 -52zM430 291q0 -20 21 -21h319q20 0 21 21v782q0 20 -21 21h-319q-20 0 -21 -21v-782z" />
<glyph unicode="&#xd6;" horiz-adv-x="1220" d="M133 225v914q0 47 17.5 88t48 71.5t71.5 48t88 17.5h504q47 0 88 -17.5t72 -48t48 -71.5t17 -88v-914q0 -47 -17 -88t-48 -71.5t-72 -48t-88 -17.5h-504q-47 0 -88 17.5t-71.5 48t-48 71.5t-17.5 88zM301 1493v260h227v-260h-227zM430 291q0 -20 21 -21h319q20 0 21 21 v782q0 20 -21 21h-319q-20 0 -21 -21v-782zM688 1493v260h227v-260h-227z" />
<glyph unicode="&#xd7;" horiz-adv-x="991" d="M92 442l217 217l-215 215l187 187l215 -215l217 217l186 -186l-217 -218l217 -217l-186 -186l-217 217l-217 -217z" />
<glyph unicode="&#xd8;" horiz-adv-x="1220" d="M133 -45l64 113q-63 63 -64 157v914q0 47 17.5 88t48 71.5t71.5 48t88 17.5h504q27 0 51 -6l62 108l112 -57l-63 -113q29 -31 46 -70.5t17 -86.5v-914q0 -47 -17 -88t-48 -71.5t-72 -48t-88 -17.5h-504q-29 0 -55 6l-59 -108zM430 487l336 607h-315q-20 0 -21 -21v-586z M451 270h319q20 0 21 21v586z" />
<glyph unicode="&#xd9;" horiz-adv-x="1202" d="M133 225v1139h297v-1073q0 -20 21 -21h301q20 0 20 21v1073h297v-1139q0 -47 -17.5 -88t-48 -71.5t-71.5 -48t-88 -17.5h-486q-47 0 -88 17.5t-71.5 48t-48 71.5t-17.5 88zM352 1690l129 151l269 -229l-127 -150z" />
<glyph unicode="&#xda;" horiz-adv-x="1202" d="M133 225v1139h297v-1073q0 -20 21 -21h301q20 0 20 21v1073h297v-1139q0 -47 -17.5 -88t-48 -71.5t-71.5 -48t-88 -17.5h-486q-47 0 -88 17.5t-71.5 48t-48 71.5t-17.5 88zM453 1612l268 229l129 -151l-270 -228z" />
<glyph unicode="&#xdb;" horiz-adv-x="1202" d="M133 225v1139h297v-1073q0 -20 21 -21h301q20 0 20 21v1073h297v-1139q0 -47 -17.5 -88t-48 -71.5t-71.5 -48t-88 -17.5h-486q-47 0 -88 17.5t-71.5 48t-48 71.5t-17.5 88zM301 1571l299 254l299 -254l-111 -135l-188 163l-186 -163z" />
<glyph unicode="&#xdc;" horiz-adv-x="1202" d="M133 225v1139h297v-1073q0 -20 21 -21h301q20 0 20 21v1073h297v-1139q0 -47 -17.5 -88t-48 -71.5t-71.5 -48t-88 -17.5h-486q-47 0 -88 17.5t-71.5 48t-48 71.5t-17.5 88zM293 1493v260h227v-260h-227zM680 1493v260h227v-260h-227z" />
<glyph unicode="&#xdd;" d="M0 1364h313l230 -571l229 571h313l-393 -905v-459h-299v459zM385 1612l268 229l129 -151l-270 -228z" />
<glyph unicode="&#xde;" horiz-adv-x="1150" d="M143 0v1364h297v-225h434q47 0 88.5 -17.5t72 -48.5t48 -71.5t17.5 -88.5v-413q0 -47 -17.5 -88t-48 -72t-71.5 -48.5t-89 -17.5h-434v-274h-297zM440 545h344q20 0 21 20v283q0 20 -21 20h-344v-323z" />
<glyph unicode="&#xdf;" horiz-adv-x="1247" d="M143 0v1169q0 43 16.5 82t46.5 69t68.5 46t81.5 16h349q43 0 81.5 -16t68.5 -46t46.5 -69t16.5 -82v-436q0 -10 5 -17l9 -14q8 -10 26 -30l42 -48l52 -60l56 -62l44 -52q17 -22 27.5 -42.5t13.5 -45t3 -63.5v-86q0 -88 -57.5 -150.5t-155.5 -62.5h-242q-47 0 -86 16.5 t-66.5 46t-44 68.5t-16.5 82v104h254v-69q0 -20 21 -21h108q18 0 19 19v67q0 10 -1 15.5t-9 13.5q-12 12 -66 71l-158 173q-20 23 -32.5 41t-18.5 37.5t-8 42t-2 55.5v354q0 20 -21 21h-168q-20 0 -20 -21v-1116h-283z" />
<glyph unicode="&#xe0;" horiz-adv-x="1048" d="M113 193v153q0 94 55 153.5t158 59.5q57 0 145 -9t172 -26v178q0 20 -20 21h-211q-20 0 -21 -21v-43h-266v99q0 43 16.5 82t46 68.5t68.5 46t82 16.5h375q43 0 82 -16.5t68.5 -46t46 -68.5t16.5 -82v-758h-273v47q-33 -12 -77 -24.5t-90 -21.5t-89 -15t-71 -6 q-102 0 -157.5 59.5t-55.5 153.5zM295 1296l129 152l268 -229l-127 -150zM389 213q0 -20 21 -20q8 0 38.5 5t65.5 12l67 14q32 7 42 12q20 6 20 26v55q0 23 -20 27q-29 2 -62 5t-63.5 5t-55 3t-32.5 1q-20 0 -21 -20v-125z" />
<glyph unicode="&#xe1;" horiz-adv-x="1048" d="M113 193v153q0 94 55 153.5t158 59.5q57 0 145 -9t172 -26v178q0 20 -20 21h-211q-20 0 -21 -21v-43h-266v99q0 43 16.5 82t46 68.5t68.5 46t82 16.5h375q43 0 82 -16.5t68.5 -46t46 -68.5t16.5 -82v-758h-273v47q-33 -12 -77 -24.5t-90 -21.5t-89 -15t-71 -6 q-102 0 -157.5 59.5t-55.5 153.5zM389 213q0 -20 21 -20q8 0 38.5 5t65.5 12l67 14q32 7 42 12q20 6 20 26v55q0 23 -20 27q-29 2 -62 5t-63.5 5t-55 3t-32.5 1q-20 0 -21 -20v-125zM399 1219l269 229l129 -152l-271 -227z" />
<glyph unicode="&#xe2;" horiz-adv-x="1048" d="M113 193v153q0 94 55 153.5t158 59.5q57 0 145 -9t172 -26v178q0 20 -20 21h-211q-20 0 -21 -21v-43h-266v99q0 43 16.5 82t46 68.5t68.5 46t82 16.5h375q43 0 82 -16.5t68.5 -46t46 -68.5t16.5 -82v-758h-273v47q-33 -12 -77 -24.5t-90 -21.5t-89 -15t-71 -6 q-102 0 -157.5 59.5t-55.5 153.5zM250 1202l299 254l299 -254l-111 -135l-188 164l-187 -164zM389 213q0 -20 21 -20q8 0 38.5 5t65.5 12l67 14q32 7 42 12q20 6 20 26v55q0 23 -20 27q-29 2 -62 5t-63.5 5t-55 3t-32.5 1q-20 0 -21 -20v-125z" />
<glyph unicode="&#xe3;" horiz-adv-x="1048" d="M113 193v153q0 94 55 153.5t158 59.5q57 0 145 -9t172 -26v178q0 20 -20 21h-211q-20 0 -21 -21v-43h-266v99q0 43 16.5 82t46 68.5t68.5 46t82 16.5h375q43 0 82 -16.5t68.5 -46t46 -68.5t16.5 -82v-758h-273v47q-33 -12 -77 -24.5t-90 -21.5t-89 -15t-71 -6 q-102 0 -157.5 59.5t-55.5 153.5zM221 1165l92 150q18 29 48 45t63 16q41 0 72 -20l67 -41l66 -41q18 -10 30 8l62 96l133 -84l-88 -143q-18 -29 -48 -45t-65 -16q-41 0 -71 20l-131 84q-23 14 -39 -10l-30 -49l-30 -52zM389 213q0 -20 21 -20q8 0 38.5 5t65.5 12l67 14 q32 7 42 12q20 6 20 26v55q0 23 -20 27q-29 2 -62 5t-63.5 5t-55 3t-32.5 1q-20 0 -21 -20v-125z" />
<glyph unicode="&#xe4;" horiz-adv-x="1048" d="M113 193v153q0 94 55 153.5t158 59.5q57 0 145 -9t172 -26v178q0 20 -20 21h-211q-20 0 -21 -21v-43h-266v99q0 43 16.5 82t46 68.5t68.5 46t82 16.5h375q43 0 82 -16.5t68.5 -46t46 -68.5t16.5 -82v-758h-273v47q-33 -12 -77 -24.5t-90 -21.5t-89 -15t-71 -6 q-102 0 -157.5 59.5t-55.5 153.5zM240 1112v260h227v-260h-227zM389 213q0 -20 21 -20q8 0 38.5 5t65.5 12l67 14q32 7 42 12q20 6 20 26v55q0 23 -20 27q-29 2 -62 5t-63.5 5t-55 3t-32.5 1q-20 0 -21 -20v-125zM627 1112v260h227v-260h-227z" />
<glyph unicode="&#xe5;" horiz-adv-x="1048" d="M113 193v153q0 94 55 153.5t158 59.5q57 0 145 -9t172 -26v178q0 20 -20 21h-211q-20 0 -21 -21v-43h-266v99q0 43 16.5 82t46 68.5t68.5 46t82 16.5h375q43 0 82 -16.5t68.5 -46t46 -68.5t16.5 -82v-758h-273v47q-33 -12 -77 -24.5t-90 -21.5t-89 -15t-71 -6 q-102 0 -157.5 59.5t-55.5 153.5zM360 1159v193q0 31 21.5 52t50.5 21h199q29 0 51.5 -21.5t22.5 -51.5v-193q0 -29 -23 -51.5t-51 -22.5h-199q-29 0 -50.5 22.5t-21.5 51.5zM389 213q0 -20 21 -20q8 0 38.5 5t65.5 12l67 14q32 7 42 12q20 6 20 26v55q0 23 -20 27 q-29 2 -62 5t-63.5 5t-55 3t-32.5 1q-20 0 -21 -20v-125zM467 1202q0 -16 16 -16h99q16 0 16 16v107q0 16 -16 16h-99q-16 0 -16 -16v-107z" />
<glyph unicode="&#xe6;" horiz-adv-x="1554" d="M113 193v153q0 94 55 153.5t158 59.5q57 0 145 -9t172 -26v183q-4 16 -20 16h-211q-20 0 -21 -21v-49h-266v105q0 43 16.5 82t46 68.5t68.5 46t82 16.5h375q18 0 38.5 -7.5t32.5 -17.5q12 10 32 17.5t40 7.5h375q43 0 82 -16.5t68.5 -46t46 -68.5t16.5 -82v-357h-518 v-133q0 -20 20 -20h213q20 0 21 20v43h272v-98q0 -43 -16.5 -82t-46 -68.5t-68.5 -46t-82 -16.5h-383q-35 0 -69.5 11.5t-55.5 27.5q-209 -59 -405 -59q-102 0 -157.5 59.5t-55.5 153.5zM389 213q0 -20 21 -20q8 0 38.5 5t65.5 12l67 14q32 7 42 12q18 6 20 20v61 q0 23 -20 27q-29 2 -62 5t-63.5 5t-55 3t-32.5 1q-20 0 -21 -20v-125zM926 604h252v101q0 20 -21 20h-211q-20 0 -20 -20v-101z" />
<glyph unicode="&#xe7;" horiz-adv-x="1003" d="M113 213v545q0 43 16 82t46 68.5t69 46t82 16.5h383q43 0 81.5 -16.5t68.5 -46t46.5 -68.5t16.5 -82v-156h-277v90q0 20 -20 21h-209q-20 0 -21 -21v-413q0 -20 21 -21h209q20 0 20 21v104h277v-170q0 -43 -16.5 -82t-46.5 -68.5t-68.5 -46t-81.5 -16.5h-74l-125 -291 l-197 78l88 213h-75q-43 0 -82 16.5t-69 46t-46 68.5t-16 82z" />
<glyph unicode="&#xe8;" horiz-adv-x="1024" d="M113 213v545q0 43 16 82t46 68.5t69 46t82 16.5h374q43 0 82 -16.5t69 -46t46 -68.5t16 -82v-357h-518v-137q0 -20 21 -20h207q20 0 20 20v43h272v-94q0 -43 -16 -82t-46 -68.5t-69 -46t-82 -16.5h-376q-43 0 -82 16.5t-69 46t-46 68.5t-16 82zM285 1296l129 152 l268 -229l-127 -150zM395 604h252v101q0 20 -20 20h-211q-20 0 -21 -20v-101z" />
<glyph unicode="&#xe9;" horiz-adv-x="1024" d="M113 213v545q0 43 16 82t46 68.5t69 46t82 16.5h374q43 0 82 -16.5t69 -46t46 -68.5t16 -82v-357h-518v-137q0 -20 21 -20h207q20 0 20 20v43h272v-94q0 -43 -16 -82t-46 -68.5t-69 -46t-82 -16.5h-376q-43 0 -82 16.5t-69 46t-46 68.5t-16 82zM365 1219l268 229 l129 -152l-270 -227zM395 604h252v101q0 20 -20 20h-211q-20 0 -21 -20v-101z" />
<glyph unicode="&#xea;" horiz-adv-x="1024" d="M113 213v545q0 43 16 82t46 68.5t69 46t82 16.5h374q43 0 82 -16.5t69 -46t46 -68.5t16 -82v-357h-518v-137q0 -20 21 -20h207q20 0 20 20v43h272v-94q0 -43 -16 -82t-46 -68.5t-69 -46t-82 -16.5h-376q-43 0 -82 16.5t-69 46t-46 68.5t-16 82zM233 1202l299 254 l299 -254l-110 -135l-189 164l-186 -164zM395 604h252v101q0 20 -20 20h-211q-20 0 -21 -20v-101z" />
<glyph unicode="&#xeb;" horiz-adv-x="1024" d="M113 213v545q0 43 16 82t46 68.5t69 46t82 16.5h374q43 0 82 -16.5t69 -46t46 -68.5t16 -82v-357h-518v-137q0 -20 21 -20h207q20 0 20 20v43h272v-94q0 -43 -16 -82t-46 -68.5t-69 -46t-82 -16.5h-376q-43 0 -82 16.5t-69 46t-46 68.5t-16 82zM217 1112v260h227v-260 h-227zM395 604h252v101q0 20 -20 20h-211q-20 0 -21 -20v-101zM604 1112v260h227v-260h-227z" />
<glyph unicode="&#xec;" horiz-adv-x="548" d="M25 1296l129 152l268 -229l-127 -150zM135 0v971h283v-971h-283z" />
<glyph unicode="&#xed;" horiz-adv-x="548" d="M135 0v971h283v-971h-283zM139 1219l269 229l129 -152l-271 -227z" />
<glyph unicode="&#xee;" horiz-adv-x="548" d="M-23 1202l299 254l299 -254l-110 -135l-189 164l-186 -164zM135 0v971h283v-971h-283z" />
<glyph unicode="&#xef;" horiz-adv-x="548" d="M-31 1112v260h228v-260h-228zM135 0v971h283v-971h-283zM356 1112v260h228v-260h-228z" />
<glyph unicode="&#xf0;" horiz-adv-x="1071" d="M123 213v438q0 94 55 153.5t158 59.5q29 0 71 -5t88 -13t91 -18.5t80 -20.5v237l-127 -139l-58 53l152 168h-387v238h489q47 0 92 -23l109 123l57 -53l-102 -117q27 -29 42 -65.5t15 -77.5v-938q0 -43 -16.5 -82t-46 -68.5t-68.5 -46t-82 -16.5h-399q-43 0 -82 16.5 t-68.5 46t-46 68.5t-16.5 82zM406 272q0 -20 20 -20h219q20 0 21 20v256q0 20 -21 31q-12 6 -44 13.5t-69 13.5l-67 11q-31 5 -39 5q-20 0 -20 -20v-310z" />
<glyph unicode="&#xf1;" d="M133 0v971h273v-72l78 29q46 16 95.5 30.5t95.5 23.5t75 9q102 0 157.5 -59.5t55.5 -153.5v-778h-283v684q0 20 -21 21q-8 0 -39 -10l-69 -20l-71 -23q-34 -11 -44 -15q-20 -6 -20 -27v-610h-283zM236 1165l92 150q18 29 48 45t62 16q41 0 72 -20l68 -41l65 -41 q18 -10 31 8l61 96l133 -84l-88 -143q-18 -29 -48 -45t-64 -16q-41 0 -72 20l-131 84q-23 14 -39 -10l-30 -49l-29 -52z" />
<glyph unicode="&#xf2;" horiz-adv-x="1077" d="M113 213v545q0 43 16 82t46 68.5t69 46t82 16.5h426q43 0 81.5 -16.5t68.5 -46t46.5 -68.5t16.5 -82v-545q0 -43 -16.5 -82t-46.5 -68.5t-68.5 -46t-81.5 -16.5h-426q-43 0 -82 16.5t-69 46t-46 68.5t-16 82zM279 1296l129 152l268 -229l-127 -150zM395 279q0 -20 21 -21 h246q20 0 20 21v413q0 20 -20 21h-246q-20 0 -21 -21v-413z" />
<glyph unicode="&#xf3;" horiz-adv-x="1077" d="M113 213v545q0 43 16 82t46 68.5t69 46t82 16.5h426q43 0 81.5 -16.5t68.5 -46t46.5 -68.5t16.5 -82v-545q0 -43 -16.5 -82t-46.5 -68.5t-68.5 -46t-81.5 -16.5h-426q-43 0 -82 16.5t-69 46t-46 68.5t-16 82zM385 1219l268 229l129 -152l-270 -227zM395 279q0 -20 21 -21 h246q20 0 20 21v413q0 20 -20 21h-246q-20 0 -21 -21v-413z" />
<glyph unicode="&#xf4;" horiz-adv-x="1077" d="M113 213v545q0 43 16 82t46 68.5t69 46t82 16.5h426q43 0 81.5 -16.5t68.5 -46t46.5 -68.5t16.5 -82v-545q0 -43 -16.5 -82t-46.5 -68.5t-68.5 -46t-81.5 -16.5h-426q-43 0 -82 16.5t-69 46t-46 68.5t-16 82zM240 1202l299 254l299 -254l-111 -135l-188 164l-187 -164z M395 279q0 -20 21 -21h246q20 0 20 21v413q0 20 -20 21h-246q-20 0 -21 -21v-413z" />
<glyph unicode="&#xf5;" horiz-adv-x="1077" d="M113 213v545q0 43 16 82t46 68.5t69 46t82 16.5h426q43 0 81.5 -16.5t68.5 -46t46.5 -68.5t16.5 -82v-545q0 -43 -16.5 -82t-46.5 -68.5t-68.5 -46t-81.5 -16.5h-426q-43 0 -82 16.5t-69 46t-46 68.5t-16 82zM246 1165l92 150q18 29 48 45t63 16q41 0 71 -20l68 -41 l65 -41q18 -10 31 8l61 96l134 -84l-88 -143q-18 -29 -48 -45t-65 -16q-41 0 -72 20l-131 84q-23 14 -39 -10l-29 -49l-30 -52zM395 279q0 -20 21 -21h246q20 0 20 21v413q0 20 -20 21h-246q-20 0 -21 -21v-413z" />
<glyph unicode="&#xf6;" horiz-adv-x="1077" d="M113 213v545q0 43 16 82t46 68.5t69 46t82 16.5h426q43 0 81.5 -16.5t68.5 -46t46.5 -68.5t16.5 -82v-545q0 -43 -16.5 -82t-46.5 -68.5t-68.5 -46t-81.5 -16.5h-426q-43 0 -82 16.5t-69 46t-46 68.5t-16 82zM231 1112v260h228v-260h-228zM395 279q0 -20 21 -21h246 q20 0 20 21v413q0 20 -20 21h-246q-20 0 -21 -21v-413zM618 1112v260h228v-260h-228z" />
<glyph unicode="&#xf7;" horiz-adv-x="1081" d="M92 549v229h897v-229h-897zM397 131v287h287v-287h-287zM397 909v285h287v-285h-287z" />
<glyph unicode="&#xf8;" horiz-adv-x="1077" d="M113 213v545q0 43 16 82t46 68.5t69 46t82 16.5h426q25 0 49 -6l73 108l91 -61l-68 -99q31 -29 49.5 -69.5t18.5 -85.5v-545q0 -43 -16.5 -82t-46.5 -68.5t-68.5 -46t-81.5 -16.5h-426h-26q-13 0 -24 4l-73 -106l-90 61l67 98q-67 62 -67 156zM395 371l234 342h-213 q-20 0 -21 -21v-321zM449 258h213q20 0 20 21v319z" />
<glyph unicode="&#xf9;" d="M123 193v778h283v-692q0 -20 20 -21q8 0 40 9l69 21l70 22q34 11 44 16q20 6 21 26v619h282v-971h-272v72l-80 -29q-47 -16 -96 -30.5t-94 -23.5t-74 -9q-102 0 -157.5 59.5t-55.5 153.5zM315 1296l129 152l269 -229l-127 -150z" />
<glyph unicode="&#xfa;" d="M123 193v778h283v-692q0 -20 20 -21q8 0 40 9l69 21l70 22q34 11 44 16q20 6 21 26v619h282v-971h-272v72l-80 -29q-47 -16 -96 -30.5t-94 -23.5t-74 -9q-102 0 -157.5 59.5t-55.5 153.5zM377 1219l268 229l129 -152l-270 -227z" />
<glyph unicode="&#xfb;" d="M123 193v778h283v-692q0 -20 20 -21q8 0 40 9l69 21l70 22q34 11 44 16q20 6 21 26v619h282v-971h-272v72l-80 -29q-47 -16 -96 -30.5t-94 -23.5t-74 -9q-102 0 -157.5 59.5t-55.5 153.5zM246 1202l299 254l299 -254l-111 -135l-188 164l-187 -164z" />
<glyph unicode="&#xfc;" d="M123 193v778h283v-692q0 -20 20 -21q8 0 40 9l69 21l70 22q34 11 44 16q20 6 21 26v619h282v-971h-272v72l-80 -29q-47 -16 -96 -30.5t-94 -23.5t-74 -9q-102 0 -157.5 59.5t-55.5 153.5zM240 1112v260h227v-260h-227zM627 1112v260h227v-260h-227z" />
<glyph unicode="&#xfd;" horiz-adv-x="942" d="M10 971h283l180 -656l180 656h283l-303 -971l-121 -389h-285l97 350zM324 1219l268 229l129 -152l-270 -227z" />
<glyph unicode="&#xfe;" horiz-adv-x="1079" d="M133 -389v1753h283v-461q33 12 80 27.5t94 29t91 22.5t73 9q102 0 157.5 -59.5t55.5 -153.5v-585q0 -94 -55.5 -153.5t-157.5 -59.5q-29 0 -73 9t-92 22.5t-94 28.5t-79 28v-457h-283zM416 336q0 -20 20 -27q10 -4 44 -15l72 -23l71 -20q33 -9 41 -9q20 0 20 20v447 q0 20 -20 20q-8 0 -41 -9l-71 -21q-38 -11 -72 -22t-44 -15q-20 -6 -20 -27v-299z" />
<glyph unicode="&#xff;" horiz-adv-x="942" d="M10 971h283l180 -656l180 656h283l-303 -971l-121 -389h-285l97 350zM174 1112v260h227v-260h-227zM561 1112v260h227v-260h-227z" />
<glyph unicode="&#x152;" horiz-adv-x="1742" d="M133 225v914q0 47 17.5 88t48 71.5t71.5 48t88 17.5h1280v-270h-551v-260h508v-271h-508v-293h553v-270h-1282q-47 0 -88 17.5t-71.5 48t-48 71.5t-17.5 88zM430 291q0 -20 21 -21h319q16 0 21 15v792q-4 16 -21 17h-319q-20 0 -21 -21v-782z" />
<glyph unicode="&#x153;" horiz-adv-x="1593" d="M113 213v545q0 43 16 82t46 68.5t69 46t82 16.5h426q18 0 37.5 -6.5t33.5 -14.5q14 8 32.5 14.5t39.5 6.5h375q43 0 82 -16.5t68.5 -46t46 -68.5t16.5 -82v-357h-518v-133q0 -20 20 -20h213q20 0 21 20v51h272v-106q0 -43 -16.5 -82t-46 -68.5t-68.5 -46t-82 -16.5h-383 q-20 0 -38.5 6t-33.5 14q-14 -8 -33.5 -14t-37.5 -6h-426q-43 0 -82 16.5t-69 46t-46 68.5t-16 82zM395 279q0 -20 21 -21h246q20 0 20 21v413q0 20 -20 21h-246q-20 0 -21 -21v-413zM965 604h252v101q0 20 -21 20h-211q-20 0 -20 -20v-101z" />
<glyph unicode="&#x178;" d="M0 1364h313l230 -571l229 571h313l-393 -905v-459h-299v459zM236 1493v260h227v-260h-227zM623 1493v260h227v-260h-227z" />
<glyph unicode="&#x2c6;" horiz-adv-x="987" d="M195 1202l299 254l299 -254l-111 -135l-188 164l-187 -164z" />
<glyph unicode="&#x2dc;" horiz-adv-x="1021" d="M195 1165l92 150q18 29 48 45t62 16q41 0 72 -20l68 -41l65 -41q18 -10 31 8l61 96l133 -84l-88 -143q-18 -29 -47.5 -45t-64.5 -16q-41 0 -72 20l-131 84q-23 14 -39 -10l-30 -49l-29 -52z" />
<glyph unicode="&#x2013;" horiz-adv-x="876" d="M72 467v242h733v-242h-733z" />
<glyph unicode="&#x2014;" horiz-adv-x="1183" d="M72 467v242h1040v-242h-1040z" />
<glyph unicode="&#x2018;" horiz-adv-x="532" d="M113 750v350l147 284l143 -81l-102 -203h129v-350h-317z" />
<glyph unicode="&#x2019;" horiz-adv-x="532" d="M102 1014v350h318v-350l-148 -285l-143 82l102 203h-129z" />
<glyph unicode="&#x201a;" horiz-adv-x="532" d="M102 0v350h318v-350l-148 -285l-143 82l102 203h-129z" />
<glyph unicode="&#x201c;" horiz-adv-x="972" d="M113 750v350l147 284l143 -81l-102 -203h129v-350h-317zM553 750v350l147 284l144 -81l-103 -203h129v-350h-317z" />
<glyph unicode="&#x201d;" horiz-adv-x="972" d="M102 1014v350h318v-350l-148 -285l-143 82l102 203h-129zM543 1014v350h317v-350l-147 -285l-144 82l103 203h-129z" />
<glyph unicode="&#x201e;" horiz-adv-x="972" d="M102 0v350h318v-350l-148 -285l-143 82l102 203h-129zM543 0v350h317v-350l-147 -285l-144 82l103 203h-129z" />
<glyph unicode="&#x2022;" horiz-adv-x="743" d="M123 651q0 51 19.5 97.5t53 80t80 53t97.5 19.5t96 -19.5t79 -53t53.5 -80t19.5 -97.5t-19.5 -96t-53.5 -79t-79 -53.5t-96 -19.5t-97.5 19.5t-80 53.5t-53 79t-19.5 96z" />
<glyph unicode="&#x2026;" horiz-adv-x="1751" d="M133 0v350h318v-350h-318zM717 0v350h317v-350h-317zM1300 0v350h318v-350h-318z" />
<glyph unicode="&#x2039;" horiz-adv-x="663" d="M92 487l258 410l191 -117l-183 -293l183 -288l-191 -117z" />
<glyph unicode="&#x203a;" horiz-adv-x="663" d="M123 199l184 288l-184 293l190 117l258 -410l-258 -405z" />
<glyph unicode="&#x20ac;" horiz-adv-x="1189" d="M90 438v168h148v135h-148v168h148v242q0 43 16 82t46 68.5t69 46t82 16.5h403q43 0 82 -16.5t68.5 -46t46 -68.5t16.5 -82v-184h-262v118q0 20 -21 21h-243q-20 0 -21 -21v-176h195v-168h-195v-135h195v-168h-195v-159q0 -20 21 -21h243q20 0 21 21v108h262v-174 q0 -43 -16.5 -82t-46 -68.5t-68.5 -46t-82 -16.5h-403q-43 0 -82 16.5t-69 46t-46 68.5t-16 82v225h-148z" />
<glyph unicode="&#x2122;" horiz-adv-x="1380" d="M92 1227v137h475v-137h-164v-473h-147v473h-164zM659 754v610h142l155 -356l160 356h141v-610h-143v313l-94 -223h-125l-92 223v-313h-144z" />
<glyph unicode="&#xe000;" horiz-adv-x="970" d="M0 970h970v-970h-970v970z" />
<glyph unicode="&#xfb01;" horiz-adv-x="1280" d="M51 729v242h129v213q0 43 16.5 82t46 68.5t68.5 46t82 16.5h297v-246h-207q-20 0 -20 -21v-159h215v-242h-215v-729h-283v729h-129zM864 0v971h283v-971h-283zM864 1092v305h283v-305h-283z" />
<glyph unicode="&#xfb02;" horiz-adv-x="1280" d="M51 729v242h129v198q0 43 16.5 82t46 69t68.5 46t82 16h297v-245h-207q-20 0 -20 -21v-145h215v-242h-215v-729h-283v729h-129zM864 0v1382h283v-1382h-283z" />
<glyph unicode="&#xfb03;" horiz-adv-x="1990" d="M51 729v242h129v198q0 43 16.5 82t46 69t68.5 46t82 16h297v-245h-207q-20 0 -20 -21v-145h215v-242h-215v-729h-283v729h-129zM772 729v242h129v198q0 43 16.5 82t46 69t68.5 46t82 16h297v-245h-207q-20 0 -20 -21v-145h215v-242h-215v-729h-283v729h-129zM1575 0v971 h283v-971h-283zM1575 1092v305h283v-305h-283z" />
<glyph unicode="&#xfb04;" horiz-adv-x="1990" d="M51 729v242h129v198q0 43 16.5 82t46 69t68.5 46t82 16h297v-245h-207q-20 0 -20 -21v-145h215v-242h-215v-729h-283v729h-129zM772 729v242h129v198q0 43 16.5 82t46 69t68.5 46t82 16h297v-245h-207q-20 0 -20 -21v-145h215v-242h-215v-729h-283v729h-129zM1575 0v1364 h283v-1364h-283z" />
</font>
</defs>
</svg>
