<?xml version="1.0" standalone="no"?>
<!DOCTYPE svg PUBLIC "-//W3C//DTD SVG 1.1//EN" "http://www.w3.org/Graphics/SVG/1.1/DTD/svg11.dtd" >
<svg xmlns="http://www.w3.org/2000/svg">
<metadata>
This is a custom SVG webfont generated by Font Squirrel.
Copyright   : Copyright c 2010 by Process Type Foundry All rights reserved
Designer    : Eric Olson
Foundry     : Process Type Foundry
Foundry URL : httpwwwprocesstypefoundrycom
</metadata>
<defs>
<font id="Stratum2WebBold" horiz-adv-x="1064" >
<font-face units-per-em="2048" ascent="1577" descent="-471" />
<missing-glyph horiz-adv-x="440" />
<glyph unicode=" "  horiz-adv-x="440" />
<glyph unicode="&#x09;" horiz-adv-x="440" />
<glyph unicode="&#xa0;" horiz-adv-x="440" />
<glyph unicode="!" horiz-adv-x="573" d="M154 0v281h266v-281h-266zM170 852v512h236v-512l-44 -426h-151z" />
<glyph unicode="&#x22;" horiz-adv-x="770" d="M102 821v543h187v-543h-187zM481 821v543h187v-543h-187z" />
<glyph unicode="#" horiz-adv-x="1411" d="M61 395l25 158h256l43 264h-256l25 156h258l65 391h170l-65 -391h321l66 391h170l-66 -391h256l-26 -156h-256l-41 -264h254l-25 -158h-256l-68 -395h-170l68 395h-322l-67 -395h-170l67 395h-256zM512 553h324l41 264h-322z" />
<glyph unicode="$" horiz-adv-x="1089" d="M164 215v174h225v-133q0 -23 16.5 -38t38.5 -15h205q29 0 42.5 15t13.5 38v236q0 29 -8.5 40t-34.5 19l-183 53l-160 51q-66 23 -109.5 74t-43.5 123v297q0 45 16.5 84t45 67.5t67.5 46t84 17.5h74v213h172v-213h80q45 0 84.5 -17.5t68.5 -46t46.5 -67.5t17.5 -84v-156 h-226v115q0 23 -16 38t-39 15h-184q-33 0 -46.5 -15.5t-13.5 -37.5v-215q0 -23 12.5 -37t30.5 -20q29 -10 72 -23l91 -27l95 -28q47 -14 84 -27q78 -27 116 -77t38 -122v-317q0 -45 -17.5 -84t-46 -68.5t-68.5 -46t-85 -16.5h-94v-213h-172v213h-76q-45 0 -84 16.5t-67.5 46 t-45 68.5t-16.5 84z" />
<glyph unicode="%" horiz-adv-x="2007" d="M133 793v372q0 41 16.5 77t44 63.5t65.5 43t79 15.5h268q41 0 79 -15.5t66.5 -43t46 -63.5t17.5 -77v-372q0 -41 -17.5 -78t-46 -64.5t-66.5 -43t-79 -15.5h-268q-41 0 -79 15.5t-65.5 43t-44 64.5t-16.5 78zM334 854q0 -35 19.5 -54.5t54.5 -19.5h133q33 0 53 19.5 t20 54.5v250q0 33 -20.5 52.5t-52.5 19.5h-133q-35 0 -54.5 -19.5t-19.5 -52.5v-250zM555 0l682 1364h215l-682 -1364h-215zM1192 201v372q0 41 16.5 77t44 63.5t65.5 43t79 15.5h268q41 0 79 -15.5t66.5 -43t46 -63.5t17.5 -77v-372q0 -41 -17.5 -78t-46 -64.5t-66.5 -43 t-79 -15.5h-268q-41 0 -79 15.5t-65.5 43t-44 64.5t-16.5 78zM1393 262q0 -35 19.5 -54.5t53.5 -19.5h133q33 0 53.5 19.5t20.5 54.5v250q0 33 -20.5 52.5t-53.5 19.5h-133q-35 0 -54 -19.5t-19 -52.5v-250z" />
<glyph unicode="&#x26;" horiz-adv-x="1218" d="M133 215v348q0 59 27.5 94t68.5 54q-35 20 -60.5 54t-25.5 81v303q0 45 17.5 84t46.5 67.5t68.5 46t84.5 17.5h281q45 0 84 -17.5t67.5 -46t45 -67.5t16.5 -84v-133h-231v80q0 23 -16.5 38t-39.5 15h-133q-23 0 -39 -15.5t-16 -37.5v-232q0 -23 13 -38t36 -15h821v-215 h-258v-381q0 -45 -16.5 -84t-45 -68.5t-67.5 -46t-84 -16.5h-428q-45 0 -85 16.5t-68.5 46t-46 68.5t-17.5 84zM369 268q0 -23 16 -38t39 -15h281q23 0 39 15.5t16 37.5v328h-324q-23 0 -45 -15.5t-22 -37.5v-275z" />
<glyph unicode="'" horiz-adv-x="391" d="M102 821v543h187v-543h-187z" />
<glyph unicode="(" horiz-adv-x="540" d="M143 -115v1397q0 92 62 158l174 164l172 -181l-158 -157q-14 -14 -14 -37v-1290q0 -23 14 -37l158 -158l-172 -180l-174 164q-62 65 -62 157z" />
<glyph unicode=")" horiz-adv-x="540" d="M-10 -256l157 158q14 14 15 37v1290q0 23 -15 37l-157 157l172 181l174 -164q61 -66 61 -158v-1397q0 -92 -61 -157l-174 -164z" />
<glyph unicode="*" horiz-adv-x="899" d="M61 948v125h273l-152 232l105 69l162 -248l161 248l105 -69l-154 -232h277v-125h-273l148 -223l-105 -68l-159 242l-160 -242l-105 68l146 223h-269z" />
<glyph unicode="+" horiz-adv-x="1052" d="M92 565v195h326v338h217v-338h326v-195h-326v-338h-217v338h-326z" />
<glyph unicode="," horiz-adv-x="503" d="M115 0v281h266v-281l-154 -254l-108 70l110 184h-114z" />
<glyph unicode="-" horiz-adv-x="671" d="M82 487v205h508v-205h-508z" />
<glyph unicode="." horiz-adv-x="552" d="M143 0v281h267v-281h-267z" />
<glyph unicode="/" horiz-adv-x="919" d="M61 -240l592 1624h195l-592 -1624h-195z" />
<glyph unicode="0" horiz-adv-x="1112" d="M143 215v934q0 45 16.5 84t45 67.5t67.5 46t84 17.5h396q45 0 85 -17.5t68.5 -46t46 -67.5t17.5 -84v-934q0 -45 -17.5 -84t-46 -68.5t-68.5 -46t-85 -16.5h-396q-45 0 -84 16.5t-67.5 46t-45 68.5t-16.5 84zM379 268q0 -23 16.5 -38t38.5 -15h244q23 0 39 15.5t16 37.5 v828q0 23 -16.5 38t-38.5 15h-244q-23 0 -39 -15.5t-16 -37.5v-828z" />
<glyph unicode="1" horiz-adv-x="757" d="M20 1016v235l349 113h235v-1364h-235v1128z" />
<glyph unicode="2" horiz-adv-x="1052" d="M123 965v184q0 45 16.5 84t45 67.5t67.5 46t84 17.5h354q45 0 85 -17.5t68.5 -46t46 -67.5t17.5 -84v-338q0 -70 -32.5 -106.5t-104.5 -71.5l-160 -75l-202 -93q-23 -10 -35.5 -21.5t-12.5 -33.5v-195h560v-215h-795v467q0 45 13.5 74.5t36 51t55 38t73.5 35.5l87 36 l74 32l74 31q38 15 87 38q23 10 35 23.5t12 35.5v234q0 23 -16.5 38t-39.5 15h-202q-23 0 -39.5 -15.5t-16.5 -37.5v-131h-235z" />
<glyph unicode="3" horiz-adv-x="1030" d="M102 215v162h232v-109q0 -23 16.5 -38t38.5 -15h217q23 0 39.5 15.5t16.5 37.5v264q0 23 -16.5 38.5t-39.5 15.5h-293v215h289q23 2 36 16t13 37v242q0 23 -16.5 38t-38.5 15h-203q-23 0 -39 -15.5t-16 -37.5v-109h-232v162q0 45 16.5 84t45.5 67.5t67.5 46t83.5 17.5 h351q45 0 85 -17.5t68.5 -46t46 -67.5t17.5 -84v-313q0 -47 -25.5 -81t-60.5 -55q41 -18 68.5 -53t27.5 -94v-338q0 -45 -17.5 -84t-46 -68.5t-68.5 -46t-85 -16.5h-365q-45 0 -83.5 16.5t-67.5 46t-45.5 68.5t-16.5 84z" />
<glyph unicode="4" horiz-adv-x="1042" d="M31 332v205l555 827h235v-827h211v-205h-211v-332h-235v332h-555zM287 537h299v469z" />
<glyph unicode="5" horiz-adv-x="1056" d="M133 215v96h236v-43q0 -23 16 -38t39 -15h219q23 0 39 15.5t16 37.5v293q0 53 -55 53q-18 0 -47 -1t-58.5 -3t-57 -5t-48.5 -7q-31 -6 -43 -25.5t-12 -42.5v-55l-236 19v870h758v-215h-522v-344q90 16 177 24.5t163 8.5q104 0 160.5 -62.5t56.5 -152.5v-408 q0 -45 -17.5 -84t-46 -68.5t-68.5 -46t-85 -16.5h-371q-45 0 -84 16.5t-67.5 46t-45 68.5t-16.5 84z" />
<glyph unicode="6" horiz-adv-x="1083" d="M143 215v934q0 45 17.5 84t46.5 67.5t68.5 46t84.5 17.5h365q45 0 84 -17.5t67.5 -46t45 -67.5t16.5 -84v-154h-236v101q0 23 -16 38t-39 15h-213q-23 0 -39 -15.5t-16 -37.5v-373q84 27 181 43t173 16q104 0 160.5 -62.5t56.5 -152.5v-352q0 -45 -17.5 -84t-46 -68.5 t-68.5 -46t-85 -16.5h-377q-45 0 -84 16.5t-67.5 46t-45 68.5t-16.5 84zM379 268q0 -23 16.5 -38t38.5 -15h225q23 0 39.5 15.5t16.5 37.5v238q0 23 -14.5 38t-41.5 15q-18 0 -48.5 -4t-63.5 -10t-63.5 -13.5t-49.5 -13.5q-55 -18 -55 -67v-183z" />
<glyph unicode="7" horiz-adv-x="903" d="M31 1149v215h811v-199l-432 -1165h-234l430 1149h-575z" />
<glyph unicode="8" horiz-adv-x="1112" d="M143 215v336q0 59 27 94t68 55q-35 18 -59.5 52t-24.5 82v315q0 45 16 84t45 67.5t68 46t84 17.5h374q45 0 85 -17.5t69 -46t46 -67.5t17 -84v-315q0 -47 -25.5 -81t-60.5 -55q41 -18 69 -53t28 -94v-336q0 -45 -17.5 -84t-46 -68.5t-68.5 -46t-85 -16.5h-396 q-45 0 -84 16.5t-67.5 46t-45 68.5t-16.5 84zM379 268q0 -23 16.5 -38t38.5 -15h244q23 0 39 15.5t16 37.5v262q0 23 -16.5 38.5t-38.5 15.5h-244q-23 0 -39 -15.5t-16 -38.5v-262zM389 852q0 -23 16.5 -38t38.5 -15h230q23 0 36 15t13 38v244q0 23 -16.5 38t-38.5 15h-224 q-23 0 -39 -15.5t-16 -37.5v-244z" />
<glyph unicode="9" horiz-adv-x="1083" d="M133 795v354q0 45 17.5 84t46 67.5t68.5 46t85 17.5h377q45 0 84 -17.5t67.5 -46t45 -67.5t16.5 -84v-934q0 -45 -17.5 -84t-46 -68.5t-68.5 -46t-85 -16.5h-375q-45 0 -84 16.5t-67.5 46t-45 68.5t-16.5 84v154h236v-101q0 -23 16 -38t39 -15h223q23 0 39.5 15.5 t16.5 37.5v371q-84 -27 -181.5 -43t-173.5 -16q-104 0 -160.5 62.5t-56.5 152.5zM369 856q0 -23 14 -38t41 -15q18 0 49 4t63.5 10t63.5 13.5t49 13.5q55 18 56 67v185q0 23 -16.5 38t-39.5 15h-225q-23 0 -39 -15.5t-16 -37.5v-240z" />
<glyph unicode=":" horiz-adv-x="552" d="M143 0v281h267v-281h-267zM143 637v281h267v-281h-267z" />
<glyph unicode=";" horiz-adv-x="544" d="M135 0v281h266v-281l-153 -254l-109 70l111 184h-115zM135 637v281h266v-281h-266z" />
<glyph unicode="&#x3c;" horiz-adv-x="1114" d="M102 586v151l809 381l80 -174l-629 -282l629 -281l-80 -174z" />
<glyph unicode="=" horiz-adv-x="1011" d="M102 365v190h807v-190h-807zM102 768v190h807v-190h-807z" />
<glyph unicode="&#x3e;" horiz-adv-x="1114" d="M123 381l629 281l-629 282l80 174l809 -381v-151l-809 -379z" />
<glyph unicode="?" horiz-adv-x="995" d="M102 977v172q0 45 16.5 84t45.5 67.5t67.5 46t83.5 17.5h351q45 0 85 -17.5t68.5 -46t46 -67.5t17.5 -84v-318q0 -41 -10.5 -67.5t-28 -46t-40.5 -33.5l-52 -31l-79 -43.5t-67 -38.5q-20 -12 -33.5 -26.5t-13.5 -36.5v-78h-233v137q0 37 5 62.5t18 47t38 40t62 37.5 l74 38q40 19 77 39q25 14 36 27.5t11 38.5v199q0 23 -16.5 38t-38.5 15h-199q-23 0 -39 -15.5t-16 -37.5v-119h-236zM315 0v281h267v-281h-267z" />
<glyph unicode="@" horiz-adv-x="1189" d="M143 197v970q0 41 15.5 77t41 62.5t60.5 42t76 15.5h518q82 0 137.5 -57.5t55.5 -139.5v-706h-173v45q-57 -18 -121.5 -35.5t-117.5 -17.5q-78 0 -118 45t-40 110v174q0 63 40 109.5t118 46.5q27 0 59.5 -2t65.5 -6t62.5 -10.5t51.5 -12.5v203q0 45 -28.5 72.5 t-71.5 27.5h-354q-43 0 -73 -27.5t-30 -72.5v-856q0 -45 30 -72.5t73 -27.5h584v-154h-668q-41 0 -76 15.5t-60.5 42t-41 62.5t-15.5 77zM645 641q0 -39 41 -39q12 0 31.5 4t40 9.5l41 11.5t35.5 12q23 6 31.5 13t8.5 24v72q0 25 -40 32q-29 4 -75 8.5t-73 4.5 q-41 0 -41 -37v-115z" />
<glyph unicode="A" horiz-adv-x="1222" d="M37 0l461 1364h227l461 -1364h-248l-98 297h-461l-94 -297h-248zM453 516h315l-158 520z" />
<glyph unicode="B" horiz-adv-x="1187" d="M154 0v1364h673q45 0 85 -17.5t69 -46t46 -67.5t17 -84v-293q0 -47 -30.5 -90t-77.5 -59q43 -8 81 -48.5t38 -99.5v-344q0 -45 -17.5 -84t-46 -68.5t-68.5 -46t-85 -16.5h-684zM399 223h355q23 0 39 15.5t16 37.5v259q0 23 -16.5 38t-38.5 15h-355v-365zM399 809h351 q23 2 36 16.5t13 36.5v225q0 23 -16.5 38.5t-39.5 15.5h-344v-332z" />
<glyph unicode="C" horiz-adv-x="1185" d="M143 225v914q0 47 17.5 88t47.5 71.5t70.5 48t88.5 17.5h460q47 0 88 -17.5t72 -48t48.5 -71.5t17.5 -88v-236h-246v182q0 23 -16.5 38.5t-38.5 15.5h-308q-23 0 -39 -15.5t-16 -38.5v-806q0 -23 16.5 -38.5t38.5 -15.5h308q23 0 39 15.5t16 38.5v194h246v-248 q0 -47 -17.5 -88t-48.5 -71.5t-72 -48t-88 -17.5h-460q-47 0 -88 17.5t-71 48t-47.5 71.5t-17.5 88z" />
<glyph unicode="D" horiz-adv-x="1187" d="M154 0v1364h665q47 0 88 -17.5t72 -48t48 -71.5t17 -88v-914q0 -47 -17 -88t-48 -71.5t-72 -48t-88 -17.5h-665zM399 225h344q23 0 39.5 15.5t16.5 38.5v806q0 23 -16.5 38.5t-39.5 15.5h-344v-914z" />
<glyph unicode="E" horiz-adv-x="1093" d="M154 0v1364h827v-225h-582v-338h531v-226h-531v-350h582v-225h-827z" />
<glyph unicode="F" horiz-adv-x="1028" d="M154 0v1364h837v-225h-592v-338h541v-226h-541v-575h-245z" />
<glyph unicode="G" horiz-adv-x="1175" d="M143 225v914q0 47 17.5 88t47.5 71.5t70.5 48t88.5 17.5h460q47 0 88 -17.5t72 -48t48.5 -71.5t17.5 -88v-193h-246v139q0 23 -16.5 38.5t-38.5 15.5h-308q-23 0 -39 -15.5t-16 -38.5v-806q0 -23 16.5 -38.5t38.5 -15.5h308q23 0 39 15.5t16 38.5v229h-238v217h484v-500 q0 -47 -17.5 -88t-48.5 -71.5t-72 -48t-88 -17.5h-460q-47 0 -88 17.5t-71 48t-47.5 71.5t-17.5 88z" />
<glyph unicode="H" horiz-adv-x="1261" d="M154 0v1364h245v-555h463v555h246v-1364h-246v584h-463v-584h-245z" />
<glyph unicode="I" horiz-adv-x="552" d="M154 0v1364h245v-1364h-245z" />
<glyph unicode="J" horiz-adv-x="1036" d="M61 225v217h246v-163q0 -23 16.5 -38.5t38.5 -15.5h230q23 0 39 15.5t16 38.5v1085h246v-1139q0 -47 -17.5 -88t-47 -71.5t-70.5 -48t-88 -17.5h-383q-47 0 -88 17.5t-72 48t-48.5 71.5t-17.5 88z" />
<glyph unicode="K" horiz-adv-x="1148" d="M154 0v1364h245v-639l426 639h285l-459 -678l477 -686h-284l-445 645v-645h-245z" />
<glyph unicode="L" horiz-adv-x="1028" d="M154 0v1364h245v-1139h557v-225h-802z" />
<glyph unicode="M" horiz-adv-x="1511" d="M154 0v1364h237l365 -836l364 836h238v-1364h-238v815l-260 -582h-209l-260 582v-815h-237z" />
<glyph unicode="N" horiz-adv-x="1298" d="M154 0v1364h237l516 -887v887h238v-1364h-238l-516 883v-883h-237z" />
<glyph unicode="O" horiz-adv-x="1216" d="M143 225v914q0 47 17.5 88t47.5 71.5t70.5 48t88.5 17.5h481q47 0 88 -17.5t71.5 -48t48 -71.5t17.5 -88v-914q0 -47 -17.5 -88t-48 -71.5t-71.5 -48t-88 -17.5h-481q-47 0 -88 17.5t-71 48t-47.5 71.5t-17.5 88zM389 279q0 -23 16.5 -38.5t38.5 -15.5h328q23 0 39 15.5 t16 38.5v806q0 23 -16 38.5t-39 15.5h-328q-23 0 -39 -15.5t-16 -38.5v-806z" />
<glyph unicode="P" horiz-adv-x="1134" d="M154 0v1364h694q47 0 88 -17.5t71.5 -48t48 -71.5t17.5 -88v-387q0 -47 -17.5 -88t-48 -72t-71.5 -48.5t-88 -17.5h-449v-526h-245zM399 752h373q23 0 39 15t16 38v280q0 23 -16 38.5t-39 15.5h-373v-387z" />
<glyph unicode="Q" horiz-adv-x="1216" d="M143 225v914q0 47 17.5 88t47.5 71.5t70.5 48t88.5 17.5h481q47 0 88 -17.5t71.5 -48t48 -71.5t17.5 -88v-914q0 -47 -17.5 -88t-48 -71.5t-71.5 -48t-88 -17.5h-121v-330h-238v330h-122q-47 0 -88 17.5t-71 48t-47.5 71.5t-17.5 88zM389 279q0 -23 16.5 -38.5 t38.5 -15.5h328q23 0 39 15.5t16 38.5v806q0 23 -16 38.5t-39 15.5h-328q-23 0 -39 -15.5t-16 -38.5v-806z" />
<glyph unicode="R" horiz-adv-x="1257" d="M154 0v1364h714q47 0 88 -17.5t72 -48t48.5 -71.5t17.5 -88v-387q0 -80 -48.5 -140.5t-121.5 -79.5l262 -532h-271l-258 526h-258v-526h-245zM399 752h394q23 0 39 15t16 38v280q0 23 -16.5 38.5t-38.5 15.5h-394v-387z" />
<glyph unicode="S" horiz-adv-x="1157" d="M143 225v187h246v-133q0 -23 16.5 -38.5t38.5 -15.5h289q23 0 39 15.5t16 38.5v196q0 23 -15 37t-40 20l-102 29l-83 24l-82 23l-99 29q-45 14 -85 32.5t-70 45t-47.5 61.5t-17.5 82v281q0 47 17.5 88t47.5 71.5t71 48t88 17.5h432q47 0 88 -17.5t71.5 -48t48 -71.5 t17.5 -88v-191h-246v137q0 23 -16 38.5t-39 15.5h-278q-23 0 -39.5 -15.5t-16.5 -38.5v-170q0 -23 16.5 -38t39.5 -21q90 -27 175 -49.5l197 -54.5q88 -25 150.5 -76t62.5 -146v-305q0 -47 -17.5 -88t-47 -71.5t-70.5 -48t-88 -17.5h-442q-47 0 -88 17.5t-72 48t-48.5 71.5 t-17.5 88z" />
<glyph unicode="T" horiz-adv-x="1069" d="M41 1139v225h987v-225h-371v-1139h-245v1139h-371z" />
<glyph unicode="U" horiz-adv-x="1196" d="M143 225v1139h246v-1085q0 -23 16.5 -38.5t38.5 -15.5h308q23 0 39 15.5t16 38.5v1085h246v-1139q0 -47 -17.5 -88t-48.5 -71.5t-72 -48t-88 -17.5h-460q-47 0 -88 17.5t-71 48t-47.5 71.5t-17.5 88z" />
<glyph unicode="V" horiz-adv-x="1157" d="M41 1364h244l293 -991l294 991h244l-418 -1364h-239z" />
<glyph unicode="W" horiz-adv-x="1607" d="M61 1364h242l143 -930l250 930h215l250 -930l144 930h241l-239 -1364h-246l-258 981l-256 -981h-246z" />
<glyph unicode="X" horiz-adv-x="1165" d="M61 0l385 692l-374 672h258l252 -449l254 449h258l-377 -672l387 -692h-258l-264 469l-263 -469h-258z" />
<glyph unicode="Y" horiz-adv-x="1056" d="M0 1364h260l268 -543l269 543h260l-406 -815v-549h-245v549z" />
<glyph unicode="Z" horiz-adv-x="1167" d="M123 0v225l620 914h-604v225h897v-225l-624 -914h632v-225h-921z" />
<glyph unicode="[" horiz-adv-x="573" d="M154 -258v1888h430v-188h-195v-1512h195v-188h-430z" />
<glyph unicode="\" horiz-adv-x="919" d="M72 1386h194l592 -1624h-194z" />
<glyph unicode="]" horiz-adv-x="573" d="M-10 -70h194v1512h-194v188h430v-1888h-430v188z" />
<glyph unicode="^" horiz-adv-x="942" d="M61 748l332 616h156l332 -616l-158 -78l-252 493l-252 -493z" />
<glyph unicode="_" horiz-adv-x="827" d="M-4 -12h835v-88h-835v88z" />
<glyph unicode="`" horiz-adv-x="755" d="M123 1311l108 127l258 -226l-106 -125z" />
<glyph unicode="a" horiz-adv-x="1042" d="M123 195v163q0 90 56.5 152.5t160.5 62.5q37 0 83 -3t91 -9t87 -14t73 -17v181q0 23 -16.5 38t-39.5 15h-182q-23 0 -39 -15.5t-16 -37.5v-33h-227v82q0 90 60 150.5t153 60.5h329q45 0 84 -17.5t68 -46t45 -67.5t16 -84v-756h-235v47q-76 -27 -167 -47t-167 -20 q-104 0 -160.5 62.5t-56.5 152.5zM352 236q0 -23 14.5 -38.5t41.5 -15.5q18 0 45.5 4t56.5 10.5t57 14.5l51 14q29 10 42.5 20.5t13.5 28.5v41q0 33 -56 45q-20 4 -49 8l-58 6q-30 3 -57.5 4t-45.5 1q-27 0 -41.5 -15.5t-14.5 -37.5v-90z" />
<glyph unicode="b" d="M143 0v1364h236v-459l80 28q45 15 91 28.5t92 21.5t83 8q104 0 160.5 -62.5t56.5 -152.5v-581q0 -90 -56.5 -152.5t-160.5 -62.5q-37 0 -83 8t-92 21.5t-91 28.5l-80 28v-66h-236zM379 332q0 -47 55 -68q18 -6 47 -17t60.5 -20.5t61.5 -16.5t48 -7q27 0 41.5 15t14.5 38 v459q0 23 -14.5 38t-41.5 15q-18 0 -48 -7t-61.5 -16.5t-60 -20.5t-47.5 -17q-55 -20 -55 -68v-307z" />
<glyph unicode="c" horiz-adv-x="991" d="M123 215v541q0 45 16.5 84t45 67.5t67.5 46t84 17.5h350q92 0 152.5 -62.5t60.5 -152.5v-129h-227v75q0 23 -16.5 38.5t-39.5 15.5h-202q-23 0 -39.5 -15.5t-16.5 -38.5v-434q0 -23 16.5 -38t39.5 -15h202q23 0 39.5 15.5t16.5 37.5v88h227v-141q0 -90 -60.5 -152.5 t-152.5 -62.5h-350q-45 0 -84 16.5t-67.5 46t-45 68.5t-16.5 84z" />
<glyph unicode="d" d="M123 195v581q0 90 56.5 152.5t160.5 62.5q37 0 83 -8t92 -21.5t91 -28.5l80 -28v459h236v-1364h-236v66l-80 -28q-45 -15 -91 -28.5t-92 -21.5t-83 -8q-104 0 -160.5 62.5t-56.5 152.5zM358 256q0 -23 14.5 -38t41.5 -15q18 0 48 7t61.5 16.5t60 20.5t47.5 17 q55 20 55 68v307q0 47 -55 68q-18 6 -47 17t-60.5 20.5t-61.5 16.5t-48 7q-27 0 -41.5 -15.5t-14.5 -37.5v-459z" />
<glyph unicode="e" horiz-adv-x="1015" d="M123 215v541q0 45 16.5 84t45 67.5t67.5 46t84 17.5h354q45 0 84 -17.5t67.5 -46t45 -67.5t16.5 -84v-336h-545v-160q0 -23 16.5 -38t39.5 -15h204q23 0 39.5 15.5t16.5 37.5v45h227v-94q0 -90 -60.5 -150.5t-152.5 -60.5h-352q-45 0 -84 16.5t-67.5 46t-45 68.5 t-16.5 84zM358 614h318v99q0 23 -16.5 38t-38.5 15h-207q-23 0 -39.5 -15.5t-16.5 -37.5v-99z" />
<glyph unicode="f" horiz-adv-x="718" d="M61 774v197h136v178q0 45 16 84t45 67.5t68 46t84 17.5h268v-205h-191q-23 0 -39 -15.5t-16 -37.5v-135h236v-197h-236v-774h-235v774h-136z" />
<glyph unicode="g" horiz-adv-x="1054" d="M123 242v534q0 90 56.5 152.5t160.5 62.5q37 0 83 -8t92 -21.5t91 -28.5l80 -28v66h236v-1145q0 -45 -16.5 -84t-45.5 -68.5t-67.5 -46t-83.5 -16.5h-492v201h414q23 0 39 15t16 38v248l-80 -28q-45 -15 -91 -28.5t-92 -21.5t-83 -8q-104 0 -160.5 62.5t-56.5 152.5z M358 303q0 -23 14.5 -38t41.5 -15q18 0 48 7t61.5 16.5t60 20.5t47.5 17q55 20 55 68v260q0 47 -55 68q-18 6 -47 17t-60.5 20.5t-61.5 16.5t-48 7q-27 0 -41.5 -15.5t-14.5 -37.5v-412z" />
<glyph unicode="h" horiz-adv-x="1075" d="M143 0v1364h236v-467q31 14 75 30.5t91 31t95 23.5t85 9q104 0 160.5 -62.5t56.5 -152.5v-776h-235v707q0 23 -14.5 38t-41.5 15q-18 0 -48 -7.5t-61.5 -16.5t-60 -20l-47.5 -18q-29 -10 -42 -32.5t-13 -49.5v-616h-236z" />
<glyph unicode="i" horiz-adv-x="522" d="M143 0v971h236v-971h-236zM143 1116v262h236v-262h-236z" />
<glyph unicode="j" horiz-adv-x="522" d="M-53 -184h141q23 0 39 15t16 38v1102h236v-1145q0 -45 -16.5 -84t-45 -68.5t-67.5 -46t-84 -16.5h-219v205zM143 1116v262h236v-262h-236z" />
<glyph unicode="k" horiz-adv-x="985" d="M143 0v1364h236v-848l287 455h256l-299 -484l321 -487h-266l-299 461v-461h-236z" />
<glyph unicode="l" horiz-adv-x="522" d="M143 0v1364h236v-1364h-236z" />
<glyph unicode="m" horiz-adv-x="1638" d="M143 0v971h226v-74l78 29q46 16 95.5 30.5t97.5 24.5t85 10q63 0 108.5 -23.5t73.5 -64.5q37 14 87 29.5t103.5 29t103.5 21.5t87 8q104 0 160.5 -62.5t56.5 -152.5v-776h-235v707q0 23 -14.5 38t-41.5 15q-18 0 -47.5 -7.5t-61.5 -17.5t-61 -20l-47 -17q-55 -23 -55 -71 v-627h-235v707q0 23 -14.5 38t-41.5 15q-18 0 -48 -7.5t-61.5 -17.5l-60.5 -20l-47 -17q-29 -10 -42 -32.5t-13 -49.5v-616h-236z" />
<glyph unicode="n" horiz-adv-x="1075" d="M143 0v971h226v-74q33 14 79 30.5t95 31t97 23.5t85 9q104 0 160.5 -62.5t56.5 -152.5v-776h-235v707q0 23 -14.5 38t-41.5 15q-18 0 -48 -7.5t-61.5 -17.5l-60.5 -20l-47 -17q-29 -10 -42 -32.5t-13 -49.5v-616h-236z" />
<glyph unicode="o" d="M123 215v541q0 45 16.5 84t45 67.5t67.5 46t84 17.5h389q45 0 85 -17.5t68.5 -46t46 -67.5t17.5 -84v-541q0 -45 -17.5 -84t-46 -68.5t-68.5 -46t-85 -16.5h-389q-45 0 -84 16.5t-67.5 46t-45 68.5t-16.5 84zM358 268q0 -23 16.5 -38t39.5 -15h237q23 0 39.5 15.5 t16.5 37.5v434q0 23 -16.5 38.5t-39.5 15.5h-237q-23 0 -39.5 -15.5t-16.5 -38.5v-434z" />
<glyph unicode="p" d="M143 -389v1360h236v-66l80 28q45 15 91 28.5t92 21.5t83 8q104 0 160.5 -62.5t56.5 -152.5v-581q0 -90 -56.5 -152.5t-160.5 -62.5q-37 0 -83 8t-92 21.5t-91 28.5l-80 28v-455h-236zM379 332q0 -47 55 -68q18 -6 47 -17t60.5 -20.5t61.5 -16.5t48 -7q27 0 41.5 15 t14.5 38v459q0 23 -14.5 38t-41.5 15q-18 0 -48 -7t-61.5 -16.5t-60 -20.5t-47.5 -17q-55 -20 -55 -68v-307z" />
<glyph unicode="q" d="M123 195v581q0 90 56.5 152.5t160.5 62.5q37 0 83 -8t92 -21.5t91 -28.5l80 -28v66h236v-1360h-236v455l-80 -28q-45 -15 -91 -28.5t-92 -21.5t-83 -8q-104 0 -160.5 62.5t-56.5 152.5zM358 256q0 -23 14.5 -38t41.5 -15q18 0 48 7t61.5 16.5t60 20.5t47.5 17 q55 20 55 68v307q0 47 -55 68q-18 6 -47 17t-60.5 20.5t-61.5 16.5t-48 7q-27 0 -41.5 -15.5t-14.5 -37.5v-459z" />
<glyph unicode="r" horiz-adv-x="704" d="M143 0v971h236v-107l135 66q68 33 145 61l15 -231q-61 -25 -124 -53.5t-116 -57.5q-55 -29 -55 -82v-567h-236z" />
<glyph unicode="s" horiz-adv-x="976" d="M113 215v90h225v-49q0 -23 16.5 -38t38.5 -15h205q23 0 39 15t16 38v31q0 14 -4 24.5t-12 19.5t-27 15l-173 50.5t-169 54.5q-66 23 -109.5 73.5t-43.5 122.5v109q0 45 16 84t45 67.5t68 46t84 17.5h325q45 0 85 -17.5t69 -46t46 -67.5t17 -84v-88h-225v47q0 23 -16.5 38 t-38.5 15h-184q-23 0 -41.5 -15.5t-18.5 -37.5v-27q0 -23 12.5 -37t30.5 -20q29 -10 72 -23l91 -26l95 -29q47 -14 84 -27q78 -27 116 -77t38 -121v-113q0 -45 -17.5 -84t-46 -68.5t-68.5 -46t-85 -16.5h-342q-45 0 -84 16.5t-68 46t-45 68.5t-16 84z" />
<glyph unicode="t" horiz-adv-x="700" d="M31 766v205h147v248h236v-248h219v-205h-219v-508q0 -23 16 -38t39 -15h164v-205h-242q-45 0 -84 16.5t-67.5 46t-45 68.5t-16.5 84v551h-147z" />
<glyph unicode="u" horiz-adv-x="1075" d="M133 195v776h236v-707q0 -23 14 -38t41 -15q18 0 48 7t61.5 17.5l60.5 20.5l47 16q29 10 42 33t13 49v617h236v-971h-225v74l-80 -30.5t-94.5 -31t-97.5 -23.5t-85 -9q-104 0 -160.5 62.5t-56.5 152.5z" />
<glyph unicode="v" horiz-adv-x="950" d="M31 971h243l201 -684l199 684h246l-320 -971h-252z" />
<glyph unicode="w" horiz-adv-x="1316" d="M61 971h228l90 -594l172 594h215l170 -594l92 594h227l-174 -971h-239l-185 639l-182 -639h-239z" />
<glyph unicode="x" horiz-adv-x="991" d="M51 0l318 487l-314 484h271l170 -279l170 279h270l-313 -484l317 -487h-270l-174 285l-174 -285h-271z" />
<glyph unicode="y" horiz-adv-x="911" d="M20 971h244l195 -668l196 668h246l-442 -1360h-228l111 391z" />
<glyph unicode="z" horiz-adv-x="962" d="M123 0v215l422 541h-416v215h711v-215l-424 -541h434v-215h-727z" />
<glyph unicode="{" horiz-adv-x="610" d="M102 567v154l113 84l-65 543q-8 90 41 140t147 68q29 6 73 13.5t86 13.5l74 11q33 5 39 8l29 -179l-199 -34q-23 -4 -41 -17.5t-14 -36.5q12 -104 20.5 -164.5t14.5 -112.5t14 -113.5l21 -166.5q2 -18 -5.5 -27.5t-21.5 -19.5l-117 -86l117 -86q29 -23 27 -51 q-12 -102 -21 -163l-15 -113l-15 -112l-19 -165q-2 -25 15.5 -37t39.5 -16l201 -37l-29 -176q-4 0 -37 5l-75 12l-88 14q-45 7 -74 14q-98 18 -147.5 68.5t-40.5 140.5l65 540z" />
<glyph unicode="|" horiz-adv-x="489" d="M174 -410v2048h141v-2048h-141z" />
<glyph unicode="}" horiz-adv-x="610" d="M-31 -135l201 37q25 4 41 14t14 39l-19 165q-7 60 -15 112l-15 113q-8 60 -20 163q-2 31 26 51l117 86l-117 86q-14 10 -21 19.5t-5 27.5q12 104 20 166l14.5 114l14.5 112.5t20 164.5q4 23 -13 36t-42 18l-199 34l29 179q6 -2 39 -8l75 -11q42 -6 86 -13t72 -14 q98 -18 148 -68q42 -43 42 -115q0 -12 -1 -25l-66 -543l113 -84v-154l-113 -84l66 -540q1 -13 1 -25q0 -72 -42 -116q-49 -50 -148 -68q-29 -6 -73 -14l-88 -14l-76 -12q-33 -5 -37 -5z" />
<glyph unicode="~" horiz-adv-x="985" d="M31 438l100 176q23 39 56.5 63.5t73.5 36.5q27 8 56 7q13 0 26 -1q42 -5 81 -28l217 -127q20 -10 42 -4t32 27l80 135l159 -92l-102 -176q-23 -39 -56.5 -63.5t-73.5 -36.5q-27 -8 -56 -7q-13 0 -26 1q-42 5 -81 28l-217 127q-20 10 -41.5 4t-32.5 -27l-80 -137z" />
<glyph unicode="&#xa1;" horiz-adv-x="573" d="M154 690v281h266v-281h-266zM170 119l41 426h151l44 -426v-508h-236v508z" />
<glyph unicode="&#xa2;" horiz-adv-x="991" d="M123 410v540q0 45 16.5 84t45 67.5t67.5 46t84 17.5h82v199h170v-199h98q92 0 152.5 -62.5t60.5 -152.5v-129h-227v76q0 23 -16.5 38t-39.5 15h-202q-23 0 -39.5 -15t-16.5 -38v-434q0 -23 16.5 -38t39.5 -15h202q23 0 39.5 15t16.5 38v88h227v-141q0 -90 -60.5 -152.5 t-152.5 -62.5h-98v-195h-170v195h-82q-45 0 -84 16t-67.5 46t-45 69t-16.5 84z" />
<glyph unicode="&#xa3;" horiz-adv-x="1159" d="M82 0l20 184h189v965q0 45 16.5 84t45 67.5t67.5 46t84 17.5h387v-197h-309q-23 0 -39.5 -15t-16.5 -38v-258h291v-197h-291v-475h252q23 0 39.5 15.5t16.5 38.5v149h202v-172q0 -45 -17.5 -84t-46 -68.5t-68.5 -46t-85 -16.5h-737z" />
<glyph unicode="&#xa4;" horiz-adv-x="1347" d="M143 246l176 176q-2 10 -3 21.5t-1 23.5v438q0 10 1 21.5t3 21.5l-176 178l150 150l170 -172q25 8 57 8h307q31 0 56 -8l172 172l149 -150l-174 -174q6 -23 6 -47v-438q0 -25 -6 -49l174 -172l-149 -150l-172 170q-29 -6 -56 -6h-307q-31 0 -57 6l-170 -170zM532 508 q0 -23 13.5 -37t40.5 -14h180q27 0 40 14t13 37v356q0 51 -53 51h-180q-53 0 -54 -51v-356z" />
<glyph unicode="&#xa5;" horiz-adv-x="1028" d="M61 1364h252l201 -565l201 565h252l-232 -565h160v-170h-229l-33 -80v-74h262v-170h-262v-305h-238v305h-262v170h262v74l-33 80h-229v170h160z" />
<glyph unicode="&#xa6;" horiz-adv-x="489" d="M174 -410v854h141v-854h-141zM174 784v854h141v-854h-141z" />
<glyph unicode="&#xa7;" horiz-adv-x="1093" d="M133 313l62 207l154 -47l123 -37l128 -39l168 -51q66 -20 110 -72.5t44 -123.5v-324q0 -45 -16.5 -84t-45.5 -68.5t-67.5 -46t-83.5 -16.5h-326q-45 0 -85 16.5t-68.5 46t-46 68.5t-17.5 84v135h225v-94q0 -23 16.5 -38t38.5 -15h185q23 0 41 15t18 38v233q0 23 -12 37.5 t-31 20.5l-143 42l-113 33l-112 35zM172 825v324q0 45 16.5 84t45 67.5t67.5 46t84 17.5h326q45 0 85 -17.5t68.5 -46t46 -67.5t17.5 -84v-135h-226v94q0 23 -16 38t-39 15h-184q-23 0 -41.5 -15.5t-18.5 -37.5v-234q0 -23 12.5 -37t30.5 -20l123 -37l121 -37l127 -38 l144 -43l-62 -207l-174 50l-133 40l-123 38l-143 46q-66 23 -110 73.5t-44 122.5z" />
<glyph unicode="&#xa8;" horiz-adv-x="980" d="M205 1120v236h198v-236h-198zM578 1120v236h198v-236h-198z" />
<glyph unicode="&#xa9;" horiz-adv-x="1347" d="M143 205v954q0 41 16.5 78t44 65.5t64.5 45t80 16.5h651q43 0 80 -16.5t64.5 -45t44 -65.5t16.5 -78v-954q0 -41 -16.5 -78t-44 -65.5t-64.5 -45t-80 -16.5h-651q-43 0 -80 16.5t-64.5 45t-44 65.5t-16.5 78zM276 227q0 -45 30 -72.5t73 -27.5h590q43 0 72.5 27.5 t29.5 72.5v910q0 45 -29.5 72.5t-72.5 27.5h-590q-43 0 -73 -27.5t-30 -72.5v-910zM424 426v512q0 53 35 89t88 36h260q53 0 89 -36t36 -89v-129h-135v100q0 29 -29 29h-180q-29 0 -29 -29v-452q0 -31 29 -31h180q29 0 29 31v102h135v-133q0 -53 -36 -88t-89 -35h-260 q-53 0 -88 35t-35 88z" />
<glyph unicode="&#xaa;" horiz-adv-x="661" d="M102 924v94q0 49 32 85t91 36q43 0 98.5 -7.5t90.5 -17.5v103q0 31 -31 30h-102q-33 0 -33 -30v-15h-129v43q0 51 34.5 85t86.5 34h188q51 0 86 -36t35 -85v-430h-135v31q-43 -14 -94.5 -27.5t-94.5 -13.5q-59 0 -91 35t-32 86zM236 950q0 -31 30 -30q20 0 56 8t61 16 q31 8 31 27v20q0 18 -31 25q-23 4 -59.5 7t-57.5 3q-31 0 -30 -31v-45z" />
<glyph unicode="&#xab;" horiz-adv-x="1050" d="M82 487l270 410l158 -98l-207 -312l207 -309l-158 -96zM489 487l271 410l158 -98l-207 -312l207 -309l-158 -96z" />
<glyph unicode="&#xac;" horiz-adv-x="1114" d="M113 565v195h868v-533h-217v338h-651z" />
<glyph unicode="&#xad;" horiz-adv-x="671" d="M82 487v205h508v-205h-508z" />
<glyph unicode="&#xae;" horiz-adv-x="993" d="M113 709v495q0 66 44 113t115 47h445q76 0 120 -47t44 -113v-495q0 -66 -44 -114t-120 -48h-445q-72 0 -115.5 48t-43.5 114zM211 705q0 -29 18.5 -47.5t46.5 -18.5h439q29 0 48 18.5t19 47.5v501q0 29 -19.5 46.5t-47.5 17.5h-439q-29 0 -47 -17.5t-18 -46.5v-501z M358 752v405h207q29 0 47.5 -19.5t18.5 -47.5v-115q0 -23 -13.5 -41.5t-35.5 -24.5l90 -157h-80l-90 155h-70v-155h-74zM432 975h111q16 0 16 16v84q0 14 -16 15h-111v-115z" />
<glyph unicode="&#xaf;" horiz-adv-x="954" d="M205 1145v170h545v-170h-545z" />
<glyph unicode="&#xb0;" horiz-adv-x="571" d="M123 1081v215q0 29 18.5 48.5t46.5 19.5h193q29 0 48.5 -19.5t19.5 -48.5v-215q0 -29 -19.5 -48t-48.5 -19h-193q-29 0 -47 19t-18 48zM197 1098q0 -16 16 -17h145q16 0 17 17v182q0 16 -17 16h-145q-16 0 -16 -16v-182z" />
<glyph unicode="&#xb1;" horiz-adv-x="1093" d="M113 0v186h325v338h-325v195h325v338h217v-338h326v-195h-326v-338h326v-186h-868z" />
<glyph unicode="&#xb2;" horiz-adv-x="1466" d="M41 1364h1384l-692 -1384z" />
<glyph unicode="&#xb3;" horiz-adv-x="1466" d="M41 0l692 1384l692 -1384h-1384z" />
<glyph unicode="&#xb4;" horiz-adv-x="755" d="M266 1212l258 226l109 -127l-260 -224z" />
<glyph unicode="&#xb5;" horiz-adv-x="1075" d="M133 -389v1360h236v-715q4 -45 55 -45q18 0 48 7t61.5 17.5l60.5 20.5l47 16q29 10 42 33t13 49v617h236v-971h-225v74l-75 -29q-42 -16 -88 -29.5t-92 -23.5t-83 -12v-369h-236z" />
<glyph unicode="&#xb6;" horiz-adv-x="1136" d="M72 762v483q0 49 33.5 84t82.5 35h795v-1364h-172v1204h-143v-1474q0 -49 -34 -84t-83 -35h-223v149h139q29 0 29 29v854h-308q-49 0 -82.5 35t-33.5 84z" />
<glyph unicode="&#xb7;" horiz-adv-x="552" d="M143 518v281h267v-281h-267z" />
<glyph unicode="&#xb8;" horiz-adv-x="731" d="M205 -231l131 315l190 -39l-151 -348z" />
<glyph unicode="&#xb9;" horiz-adv-x="1609" d="M154 -20v1404l1405 -702z" />
<glyph unicode="&#xba;" horiz-adv-x="669" d="M102 936v305q0 51 36 87t85 36h221q53 0 88 -36t35 -87v-305q0 -51 -34.5 -87t-88.5 -36h-221q-49 0 -85 36t-36 87zM236 965q0 -29 32 -29h135q12 0 21.5 7t9.5 22v245q0 14 -9 22.5t-22 8.5h-135q-33 0 -32 -31v-245z" />
<glyph unicode="&#xbb;" horiz-adv-x="1050" d="M133 178l207 309l-207 312l158 98l270 -410l-270 -405zM541 178l207 309l-207 312l157 98l271 -410l-271 -405z" />
<glyph unicode="&#xbc;" horiz-adv-x="1257" d="M143 0v971h971v-971h-971z" />
<glyph unicode="&#xbd;" horiz-adv-x="1671" d="M154 0v1364h1364v-1364h-1364z" />
<glyph unicode="&#xbe;" horiz-adv-x="1196" d="M143 -20v1011l1012 -506z" />
<glyph unicode="&#xbf;" horiz-adv-x="995" d="M113 139q0 39 10 66.5t27.5 47t40.5 34.5l53 30l79 44t66 38q20 12 33.5 26.5t13.5 37.5v78h234v-138q0 -37 -5.5 -62.5t-18.5 -47t-37.5 -39.5t-61.5 -37l-75 -38q-40 -19 -77 -40q-25 -14 -36 -27.5t-11 -37.5v-195q0 -23 16.5 -38t38.5 -15h199q23 0 39 15.5t16 37.5 v119h236v-172q0 -45 -16.5 -84t-45 -68.5t-67.5 -46t-84 -16.5h-350q-45 0 -85 16.5t-69 46t-46 68.5t-17 84v313zM414 690v281h266v-281h-266z" />
<glyph unicode="&#xc0;" horiz-adv-x="1222" d="M37 0l461 1364h227l461 -1364h-248l-98 297h-461l-94 -297h-248zM358 1700l109 127l258 -225l-107 -125zM453 516h315l-158 520z" />
<glyph unicode="&#xc1;" horiz-adv-x="1222" d="M37 0l461 1364h227l461 -1364h-248l-98 297h-461l-94 -297h-248zM453 516h315l-158 520zM504 1602l258 225l108 -127l-260 -223z" />
<glyph unicode="&#xc2;" horiz-adv-x="1222" d="M37 0l461 1364h227l461 -1364h-248l-98 297h-461l-94 -297h-248zM344 1563l268 249l267 -249l-99 -111l-168 158l-170 -158zM453 516h315l-158 520z" />
<glyph unicode="&#xc3;" horiz-adv-x="1222" d="M37 0l461 1364h227l461 -1364h-248l-98 297h-461l-94 -297h-248zM322 1593q14 18 32 37q14 16 32 34l34 34q51 55 117 55q59 0 104 -41l68 -57q14 -14 34 -15q16 0 35 19q6 6 15.5 16.5t19.5 20.5q10 12 25 26l108 -98q-18 -18 -35 -37l-31 -33l-28 -28 q-25 -25 -54.5 -39t-64.5 -14q-57 0 -106 38l-66 54q-16 12 -32.5 12t-32.5 -16l-22 -22l-21 -21q-12 -12 -23 -25zM453 516h315l-158 520z" />
<glyph unicode="&#xc4;" horiz-adv-x="1222" d="M37 0l461 1364h227l461 -1364h-248l-98 297h-461l-94 -297h-248zM326 1501v236h198v-236h-198zM453 516h315l-158 520zM698 1501v236h199v-236h-199z" />
<glyph unicode="&#xc5;" horiz-adv-x="1222" d="M37 0l461 1364h227l461 -1364h-248l-98 297h-461l-94 -297h-248zM451 1526v180q0 29 18 48.5t47 19.5h186q29 0 48.5 -19.5t19.5 -48.5v-180q0 -29 -19.5 -48.5t-48.5 -19.5h-186q-29 0 -47 19.5t-18 48.5zM453 516h315l-158 520zM539 1556q0 -16 16 -16h111q16 0 16 16 v119q0 16 -16 17h-111q-16 0 -16 -17v-119z" />
<glyph unicode="&#xc6;" horiz-adv-x="1687" d="M37 0l459 1364h1075v-225h-776l106 -318h580v-225h-504l125 -371h473v-225h-641l-98 301h-457l-98 -301h-244zM449 516h315l-158 504z" />
<glyph unicode="&#xc7;" horiz-adv-x="1185" d="M143 225v914q0 47 17.5 88t47.5 71.5t70.5 48t88.5 17.5h460q47 0 88 -17.5t72 -48t48.5 -71.5t17.5 -88v-236h-246v182q0 23 -16.5 38.5t-38.5 15.5h-308q-23 0 -39 -15.5t-16 -38.5v-806q0 -23 16.5 -38.5t38.5 -15.5h308q23 0 39 15.5t16 38.5v194h246v-248 q0 -47 -17.5 -88t-48.5 -71.5t-72 -48t-88 -17.5h-125l-131 -303l-170 72l101 231h-135q-47 0 -88 17.5t-71 48t-47.5 71.5t-17.5 88z" />
<glyph unicode="&#xc8;" horiz-adv-x="1093" d="M154 0v1364h827v-225h-582v-338h531v-226h-531v-350h582v-225h-827zM348 1700l109 127l258 -225l-107 -125z" />
<glyph unicode="&#xc9;" horiz-adv-x="1093" d="M154 0v1364h827v-225h-582v-338h531v-226h-531v-350h582v-225h-827zM410 1602l258 225l108 -127l-260 -223z" />
<glyph unicode="&#xca;" horiz-adv-x="1093" d="M154 0v1364h827v-225h-582v-338h531v-226h-531v-350h582v-225h-827zM309 1563l269 249l266 -249l-99 -111l-167 158l-170 -158z" />
<glyph unicode="&#xcb;" horiz-adv-x="1093" d="M154 0v1364h827v-225h-582v-338h531v-226h-531v-350h582v-225h-827zM276 1501v236h199v-236h-199zM649 1501v236h199v-236h-199z" />
<glyph unicode="&#xcc;" horiz-adv-x="552" d="M31 1700l108 127l258 -225l-106 -125zM154 0v1364h245v-1364h-245z" />
<glyph unicode="&#xcd;" horiz-adv-x="552" d="M154 0v1364h245v-1364h-245zM164 1602l258 225l108 -127l-260 -223z" />
<glyph unicode="&#xce;" horiz-adv-x="552" d="M10 1563l269 249l266 -249l-99 -111l-167 158l-170 -158zM154 0v1364h245v-1364h-245z" />
<glyph unicode="&#xcf;" horiz-adv-x="552" d="M-6 1501v236h199v-236h-199zM154 0v1364h245v-1364h-245zM367 1501v236h198v-236h-198z" />
<glyph unicode="&#xd0;" horiz-adv-x="1255" d="M72 582v194h149v588h666q47 0 88 -17.5t71.5 -48t48 -71.5t17.5 -88v-914q0 -47 -17.5 -88t-48 -71.5t-71.5 -48t-88 -17.5h-666v582h-149zM467 225h344q23 0 39 15.5t16 38.5v806q0 23 -16 38.5t-39 15.5h-344v-363h207v-194h-207v-357z" />
<glyph unicode="&#xd1;" horiz-adv-x="1298" d="M154 0v1364h237l516 -887v887h238v-1364h-238l-516 883v-883h-237zM336 1593q14 18 33 37l31 34l34 34q51 55 117 55q59 0 104 -41l68 -57q14 -14 35 -15q16 0 35 19q6 6 15 16.5t19 20.5q10 12 25 26l109 -98q-18 -18 -35 -37l-32 -33l-28 -28q-25 -25 -54.5 -39 t-63.5 -14q-57 0 -107 38l-66 54q-16 12 -32.5 12t-32.5 -16l-22 -22l-21 -21q-12 -12 -23 -25z" />
<glyph unicode="&#xd2;" horiz-adv-x="1216" d="M143 225v914q0 47 17.5 88t47.5 71.5t70.5 48t88.5 17.5h481q47 0 88 -17.5t71.5 -48t48 -71.5t17.5 -88v-914q0 -47 -17.5 -88t-48 -71.5t-71.5 -48t-88 -17.5h-481q-47 0 -88 17.5t-71 48t-47.5 71.5t-17.5 88zM385 1700l109 127l258 -225l-107 -125zM389 279 q0 -23 16.5 -38.5t38.5 -15.5h328q23 0 39 15.5t16 38.5v806q0 23 -16 38.5t-39 15.5h-328q-23 0 -39 -15.5t-16 -38.5v-806z" />
<glyph unicode="&#xd3;" horiz-adv-x="1216" d="M143 225v914q0 47 17.5 88t47.5 71.5t70.5 48t88.5 17.5h481q47 0 88 -17.5t71.5 -48t48 -71.5t17.5 -88v-914q0 -47 -17.5 -88t-48 -71.5t-71.5 -48t-88 -17.5h-481q-47 0 -88 17.5t-71 48t-47.5 71.5t-17.5 88zM389 279q0 -23 16.5 -38.5t38.5 -15.5h328q23 0 39 15.5 t16 38.5v806q0 23 -16 38.5t-39 15.5h-328q-23 0 -39 -15.5t-16 -38.5v-806zM467 1602l258 225l109 -127l-261 -223z" />
<glyph unicode="&#xd4;" horiz-adv-x="1216" d="M143 225v914q0 47 17.5 88t47.5 71.5t70.5 48t88.5 17.5h481q47 0 88 -17.5t71.5 -48t48 -71.5t17.5 -88v-914q0 -47 -17.5 -88t-48 -71.5t-71.5 -48t-88 -17.5h-481q-47 0 -88 17.5t-71 48t-47.5 71.5t-17.5 88zM342 1563l268 249l267 -249l-99 -111l-168 158l-170 -158 zM389 279q0 -23 16.5 -38.5t38.5 -15.5h328q23 0 39 15.5t16 38.5v806q0 23 -16 38.5t-39 15.5h-328q-23 0 -39 -15.5t-16 -38.5v-806z" />
<glyph unicode="&#xd5;" horiz-adv-x="1216" d="M143 225v914q0 47 17.5 88t47.5 71.5t70.5 48t88.5 17.5h481q47 0 88 -17.5t71.5 -48t48 -71.5t17.5 -88v-914q0 -47 -17.5 -88t-48 -71.5t-71.5 -48t-88 -17.5h-481q-47 0 -88 17.5t-71 48t-47.5 71.5t-17.5 88zM322 1593q14 18 32 37q14 16 32 34l34 34q51 55 117 55 q59 0 104 -41l68 -57q14 -14 34 -15q16 0 35 19q6 6 15.5 16.5t19.5 20.5q10 12 25 26l108 -98q-18 -18 -35 -37l-31 -33l-28 -28q-25 -25 -54.5 -39t-64.5 -14q-57 0 -106 38l-66 54q-16 12 -32.5 12t-32.5 -16l-22 -22l-21 -21q-12 -12 -23 -25zM389 279q0 -23 16.5 -38.5 t38.5 -15.5h328q23 0 39 15.5t16 38.5v806q0 23 -16 38.5t-39 15.5h-328q-23 0 -39 -15.5t-16 -38.5v-806z" />
<glyph unicode="&#xd6;" horiz-adv-x="1216" d="M143 225v914q0 47 17.5 88t47.5 71.5t70.5 48t88.5 17.5h481q47 0 88 -17.5t71.5 -48t48 -71.5t17.5 -88v-914q0 -47 -17.5 -88t-48 -71.5t-71.5 -48t-88 -17.5h-481q-47 0 -88 17.5t-71 48t-47.5 71.5t-17.5 88zM324 1501v236h198v-236h-198zM389 279q0 -23 16.5 -38.5 t38.5 -15.5h328q23 0 39 15.5t16 38.5v806q0 23 -16 38.5t-39 15.5h-328q-23 0 -39 -15.5t-16 -38.5v-806zM696 1501v236h199v-236h-199z" />
<glyph unicode="&#xd7;" horiz-adv-x="925" d="M82 428l233 234l-233 233l147 147l234 -233l233 233l148 -147l-234 -233l234 -234l-148 -147l-233 233l-234 -233z" />
<glyph unicode="&#xd8;" horiz-adv-x="1218" d="M143 -47l62 115q-61 66 -62 157v914q0 47 17.5 88t47.5 71.5t70.5 48t88.5 17.5h481q31 0 67 -10l62 112l98 -55l-63 -117q29 -31 45 -70.5t16 -84.5v-914q0 -47 -17.5 -88t-48 -71.5t-71.5 -48t-88 -17.5h-481q-39 0 -66 8l-59 -110zM389 403l406 730q-10 6 -23 6h-328 q-23 0 -39 -15.5t-16 -38.5v-682zM422 229q6 -4 22 -4h328q23 0 39 15.5t16 38.5v677z" />
<glyph unicode="&#xd9;" horiz-adv-x="1196" d="M143 225v1139h246v-1085q0 -23 16.5 -38.5t38.5 -15.5h308q23 0 39 15.5t16 38.5v1085h246v-1139q0 -47 -17.5 -88t-48.5 -71.5t-72 -48t-88 -17.5h-460q-47 0 -88 17.5t-71 48t-47.5 71.5t-17.5 88zM369 1700l108 127l258 -225l-106 -125z" />
<glyph unicode="&#xda;" horiz-adv-x="1196" d="M143 225v1139h246v-1085q0 -23 16.5 -38.5t38.5 -15.5h308q23 0 39 15.5t16 38.5v1085h246v-1139q0 -47 -17.5 -88t-48.5 -71.5t-72 -48t-88 -17.5h-460q-47 0 -88 17.5t-71 48t-47.5 71.5t-17.5 88zM475 1602l258 225l109 -127l-260 -223z" />
<glyph unicode="&#xdb;" horiz-adv-x="1196" d="M143 225v1139h246v-1085q0 -23 16.5 -38.5t38.5 -15.5h308q23 0 39 15.5t16 38.5v1085h246v-1139q0 -47 -17.5 -88t-48.5 -71.5t-72 -48t-88 -17.5h-460q-47 0 -88 17.5t-71 48t-47.5 71.5t-17.5 88zM332 1563l268 249l266 -249l-98 -111l-168 158l-170 -158z" />
<glyph unicode="&#xdc;" horiz-adv-x="1196" d="M143 225v1139h246v-1085q0 -23 16.5 -38.5t38.5 -15.5h308q23 0 39 15.5t16 38.5v1085h246v-1139q0 -47 -17.5 -88t-48.5 -71.5t-72 -48t-88 -17.5h-460q-47 0 -88 17.5t-71 48t-47.5 71.5t-17.5 88zM313 1501v236h199v-236h-199zM686 1501v236h199v-236h-199z" />
<glyph unicode="&#xdd;" horiz-adv-x="1056" d="M0 1364h260l268 -543l269 543h260l-406 -815v-549h-245v549zM403 1602l259 225l108 -127l-260 -223z" />
<glyph unicode="&#xde;" horiz-adv-x="1134" d="M154 0v1364h245v-242h449q47 0 88 -17.5t71.5 -48t48 -71.5t17.5 -88v-387q0 -47 -17.5 -88t-48 -72t-71.5 -48t-88 -17h-449v-285h-245zM399 510h373q23 0 39 15.5t16 37.5v281q0 23 -16 38t-39 15h-373v-387z" />
<glyph unicode="&#xdf;" horiz-adv-x="1228" d="M154 0v1149q0 45 16 84t45 67.5t68 46t84 17.5h278q45 0 84 -17.5t67.5 -46t45 -67.5t16.5 -84v-371q0 -29 12.5 -47l24.5 -35q31 -37 56 -64l48 -54q23 -27 49 -54l56 -61q39 -43 51 -79t12 -99v-70q0 -90 -60 -152.5t-153 -62.5h-219q-45 0 -84 16.5t-67.5 46t-45 68.5 t-16.5 84v107h209v-74q0 -23 16.5 -38t38.5 -15h103q27 0 41 15t14 38v45q0 18 -8 30.5t-25 28.5l-58 62l-45 49l-46 53l-62 72q-47 57 -62 88t-15 67v363q0 23 -16.5 38t-39.5 15h-123q-23 0 -39 -15.5t-16 -37.5v-1106h-235z" />
<glyph unicode="&#xe0;" horiz-adv-x="1042" d="M123 195v163q0 90 56.5 152.5t160.5 62.5q37 0 83 -3t91 -9t87 -14t73 -17v181q0 23 -16.5 38t-39.5 15h-182q-23 0 -39 -15.5t-16 -37.5v-33h-227v82q0 90 60 150.5t153 60.5h329q45 0 84 -17.5t68 -46t45 -67.5t16 -84v-756h-235v47q-76 -27 -167 -47t-167 -20 q-104 0 -160.5 62.5t-56.5 152.5zM297 1311l109 127l258 -226l-107 -125zM352 236q0 -23 14.5 -38.5t41.5 -15.5q18 0 45.5 4t56.5 10.5t57 14.5l51 14q29 10 42.5 20.5t13.5 28.5v41q0 33 -56 45q-20 4 -49 8l-58 6q-30 3 -57.5 4t-45.5 1q-27 0 -41.5 -15.5t-14.5 -37.5 v-90z" />
<glyph unicode="&#xe1;" horiz-adv-x="1042" d="M123 195v163q0 90 56.5 152.5t160.5 62.5q37 0 83 -3t91 -9t87 -14t73 -17v181q0 23 -16.5 38t-39.5 15h-182q-23 0 -39 -15.5t-16 -37.5v-33h-227v82q0 90 60 150.5t153 60.5h329q45 0 84 -17.5t68 -46t45 -67.5t16 -84v-756h-235v47q-76 -27 -167 -47t-167 -20 q-104 0 -160.5 62.5t-56.5 152.5zM352 236q0 -23 14.5 -38.5t41.5 -15.5q18 0 45.5 4t56.5 10.5t57 14.5l51 14q29 10 42.5 20.5t13.5 28.5v41q0 33 -56 45q-20 4 -49 8l-58 6q-30 3 -57.5 4t-45.5 1q-27 0 -41.5 -15.5t-14.5 -37.5v-90zM410 1212l258 226l108 -127 l-260 -224z" />
<glyph unicode="&#xe2;" horiz-adv-x="1042" d="M123 195v163q0 90 56.5 152.5t160.5 62.5q37 0 83 -3t91 -9t87 -14t73 -17v181q0 23 -16.5 38t-39.5 15h-182q-23 0 -39 -15.5t-16 -37.5v-33h-227v82q0 90 60 150.5t153 60.5h329q45 0 84 -17.5t68 -46t45 -67.5t16 -84v-756h-235v47q-76 -27 -167 -47t-167 -20 q-104 0 -160.5 62.5t-56.5 152.5zM274 1194l269 250l266 -250l-98 -111l-168 158l-170 -158zM352 236q0 -23 14.5 -38.5t41.5 -15.5q18 0 45.5 4t56.5 10.5t57 14.5l51 14q29 10 42.5 20.5t13.5 28.5v41q0 33 -56 45q-20 4 -49 8l-58 6q-30 3 -57.5 4t-45.5 1 q-27 0 -41.5 -15.5t-14.5 -37.5v-90z" />
<glyph unicode="&#xe3;" horiz-adv-x="1042" d="M123 195v163q0 90 56.5 152.5t160.5 62.5q37 0 83 -3t91 -9t87 -14t73 -17v181q0 23 -16.5 38t-39.5 15h-182q-23 0 -39 -15.5t-16 -37.5v-33h-227v82q0 90 60 150.5t153 60.5h329q45 0 84 -17.5t68 -46t45 -67.5t16 -84v-756h-235v47q-76 -27 -167 -47t-167 -20 q-104 0 -160.5 62.5t-56.5 152.5zM244 1214q14 18 32 37q14 16 32 34l34 34q51 55 117 55q59 0 104 -41l68 -57q14 -14 35 -14q16 0 34 18q6 6 15.5 16.5t19.5 20.5q10 12 25 26l108 -98q-18 -18 -34 -37l-32 -32l-28 -29q-25 -25 -54.5 -39t-64.5 -14q-57 0 -106 39l-66 53 q-16 12 -32.5 12t-32.5 -16l-22 -22l-21 -21q-12 -12 -23 -25zM352 236q0 -23 14.5 -38.5t41.5 -15.5q18 0 45.5 4t56.5 10.5t57 14.5l51 14q29 10 42.5 20.5t13.5 28.5v41q0 33 -56 45q-20 4 -49 8l-58 6q-30 3 -57.5 4t-45.5 1q-27 0 -41.5 -15.5t-14.5 -37.5v-90z" />
<glyph unicode="&#xe4;" horiz-adv-x="1042" d="M123 195v163q0 90 56.5 152.5t160.5 62.5q37 0 83 -3t91 -9t87 -14t73 -17v181q0 23 -16.5 38t-39.5 15h-182q-23 0 -39 -15.5t-16 -37.5v-33h-227v82q0 90 60 150.5t153 60.5h329q45 0 84 -17.5t68 -46t45 -67.5t16 -84v-756h-235v47q-76 -27 -167 -47t-167 -20 q-104 0 -160.5 62.5t-56.5 152.5zM256 1120v236h199v-236h-199zM352 236q0 -23 14.5 -38.5t41.5 -15.5q18 0 45.5 4t56.5 10.5t57 14.5l51 14q29 10 42.5 20.5t13.5 28.5v41q0 33 -56 45q-20 4 -49 8l-58 6q-30 3 -57.5 4t-45.5 1q-27 0 -41.5 -15.5t-14.5 -37.5v-90z M629 1120v236h198v-236h-198z" />
<glyph unicode="&#xe5;" horiz-adv-x="1042" d="M123 195v163q0 90 56.5 152.5t160.5 62.5q37 0 83 -3t91 -9t87 -14t73 -17v181q0 23 -16.5 38t-39.5 15h-182q-23 0 -39 -15.5t-16 -37.5v-33h-227v82q0 90 60 150.5t153 60.5h329q45 0 84 -17.5t68 -46t45 -67.5t16 -84v-756h-235v47q-76 -27 -167 -47t-167 -20 q-104 0 -160.5 62.5t-56.5 152.5zM352 236q0 -23 14.5 -38.5t41.5 -15.5q18 0 45.5 4t56.5 10.5t57 14.5l51 14q29 10 42.5 20.5t13.5 28.5v41q0 33 -56 45q-20 4 -49 8l-58 6q-30 3 -57.5 4t-45.5 1q-27 0 -41.5 -15.5t-14.5 -37.5v-90zM373 1171v181q0 29 18.5 48t46.5 19 h187q29 0 48 -19.5t19 -47.5v-181q0 -29 -19.5 -48t-47.5 -19h-187q-29 0 -47 19t-18 48zM461 1202q0 -16 16 -16h111q16 0 16 16v119q0 16 -16 16h-111q-16 0 -16 -16v-119z" />
<glyph unicode="&#xe6;" horiz-adv-x="1566" d="M123 195v163q0 90 56.5 152.5t160.5 62.5q37 0 83 -3t91 -9t87 -14t73 -17v187q-4 23 -18.5 35t-37.5 12h-182q-23 0 -39 -15.5t-16 -37.5v-33h-227v82q0 90 60 150.5t153 60.5h329q57 0 95 -43q14 16 40.5 29.5t55.5 13.5h354q45 0 84 -17.5t67.5 -46t45 -67.5t16.5 -84 v-336h-545v-168q2 -20 17.5 -32.5t38.5 -12.5h204q23 0 39.5 15.5t16.5 37.5v41h227v-90q0 -90 -60.5 -150.5t-152.5 -60.5h-352q-43 0 -81 11.5t-67 39.5q-98 -35 -202.5 -53t-196.5 -18q-104 0 -160.5 62.5t-56.5 152.5zM356 240q0 -23 14.5 -38.5t41.5 -15.5 q18 0 44.5 4.5t55.5 10.5t56 14l50 14q29 10 42.5 20.5t13.5 29.5v32q0 33 -56 45q-20 4 -48 8l-57 6q-30 3 -56.5 4t-44.5 1q-27 0 -41.5 -15.5t-14.5 -37.5v-82zM909 614h318v99q0 23 -16.5 38t-39.5 15h-206q-23 0 -39.5 -15.5t-16.5 -37.5v-99z" />
<glyph unicode="&#xe7;" horiz-adv-x="991" d="M123 215v541q0 45 16.5 84t45 67.5t67.5 46t84 17.5h350q92 0 152.5 -62.5t60.5 -152.5v-129h-227v75q0 23 -16.5 38.5t-39.5 15.5h-202q-23 0 -39.5 -15.5t-16.5 -38.5v-434q0 -23 16.5 -38t39.5 -15h202q23 0 39.5 15.5t16.5 37.5v88h227v-141q0 -90 -60.5 -152.5 t-152.5 -62.5h-65l-132 -303l-170 72l97 231h-80q-45 0 -84 16.5t-67.5 46t-45 68.5t-16.5 84z" />
<glyph unicode="&#xe8;" horiz-adv-x="1015" d="M123 215v541q0 45 16.5 84t45 67.5t67.5 46t84 17.5h354q45 0 84 -17.5t67.5 -46t45 -67.5t16.5 -84v-336h-545v-160q0 -23 16.5 -38t39.5 -15h204q23 0 39.5 15.5t16.5 37.5v45h227v-94q0 -90 -60.5 -150.5t-152.5 -60.5h-352q-45 0 -84 16.5t-67.5 46t-45 68.5 t-16.5 84zM297 1311l109 127l258 -226l-107 -125zM358 614h318v99q0 23 -16.5 38t-38.5 15h-207q-23 0 -39.5 -15.5t-16.5 -37.5v-99z" />
<glyph unicode="&#xe9;" horiz-adv-x="1015" d="M123 215v541q0 45 16.5 84t45 67.5t67.5 46t84 17.5h354q45 0 84 -17.5t67.5 -46t45 -67.5t16.5 -84v-336h-545v-160q0 -23 16.5 -38t39.5 -15h204q23 0 39.5 15.5t16.5 37.5v45h227v-94q0 -90 -60.5 -150.5t-152.5 -60.5h-352q-45 0 -84 16.5t-67.5 46t-45 68.5 t-16.5 84zM358 614h318v99q0 23 -16.5 38t-38.5 15h-207q-23 0 -39.5 -15.5t-16.5 -37.5v-99zM365 1212l258 226l108 -127l-260 -224z" />
<glyph unicode="&#xea;" horiz-adv-x="1015" d="M123 215v541q0 45 16.5 84t45 67.5t67.5 46t84 17.5h354q45 0 84 -17.5t67.5 -46t45 -67.5t16.5 -84v-336h-545v-160q0 -23 16.5 -38t39.5 -15h204q23 0 39.5 15.5t16.5 37.5v45h227v-94q0 -90 -60.5 -150.5t-152.5 -60.5h-352q-45 0 -84 16.5t-67.5 46t-45 68.5 t-16.5 84zM252 1194l268 250l266 -250l-98 -111l-168 158l-170 -158zM358 614h318v99q0 23 -16.5 38t-38.5 15h-207q-23 0 -39.5 -15.5t-16.5 -37.5v-99z" />
<glyph unicode="&#xeb;" horiz-adv-x="1015" d="M123 215v541q0 45 16.5 84t45 67.5t67.5 46t84 17.5h354q45 0 84 -17.5t67.5 -46t45 -67.5t16.5 -84v-336h-545v-160q0 -23 16.5 -38t39.5 -15h204q23 0 39.5 15.5t16.5 37.5v45h227v-94q0 -90 -60.5 -150.5t-152.5 -60.5h-352q-45 0 -84 16.5t-67.5 46t-45 68.5 t-16.5 84zM238 1120v236h198v-236h-198zM358 614h318v99q0 23 -16.5 38t-38.5 15h-207q-23 0 -39.5 -15.5t-16.5 -37.5v-99zM610 1120v236h199v-236h-199z" />
<glyph unicode="&#xec;" horiz-adv-x="522" d="M27 1311l108 127l258 -226l-106 -125zM145 0v971h236v-971h-236z" />
<glyph unicode="&#xed;" horiz-adv-x="522" d="M145 0v971h236v-971h-236zM152 1212l258 226l108 -127l-260 -224z" />
<glyph unicode="&#xee;" horiz-adv-x="522" d="M-4 1194l268 250l266 -250l-98 -111l-168 158l-170 -158zM145 0v971h236v-971h-236z" />
<glyph unicode="&#xef;" horiz-adv-x="522" d="M-23 1120v236h199v-236h-199zM145 0v971h236v-971h-236zM350 1120v236h199v-236h-199z" />
<glyph unicode="&#xf0;" horiz-adv-x="1056" d="M123 215v373q0 90 56.5 152.5t160.5 62.5q76 0 173 -16.5t181 -43.5v353q0 2 -1 4t-1 4l-141 -162l-59 55l133 152h-355v215h443q43 0 86 -16l98 112l59 -55l-90 -105q29 -29 46.5 -67.5t17.5 -83.5v-934q0 -45 -16.5 -84t-45 -68.5t-67.5 -46t-84 -16.5h-377 q-45 0 -85 16.5t-68.5 46t-46 68.5t-17.5 84zM358 268q0 -23 16.5 -38t39.5 -15h225q23 0 39 15.5t16 37.5v203q0 49 -55 68q-18 6 -49 13t-63.5 13t-63.5 10.5t-49 4.5q-27 0 -41.5 -15.5t-14.5 -38.5v-258z" />
<glyph unicode="&#xf1;" horiz-adv-x="1075" d="M143 0v971h226v-74q33 14 79 30.5t95 31t97 23.5t85 9q104 0 160.5 -62.5t56.5 -152.5v-776h-235v707q0 23 -14.5 38t-41.5 15q-18 0 -48 -7.5t-61.5 -17.5l-60.5 -20l-47 -17q-29 -10 -42 -32.5t-13 -49.5v-616h-236zM233 1214q14 18 33 37q14 16 32 34l34 34 q51 55 117 55q59 0 104 -41l68 -57q14 -14 34 -14q16 0 35 18q6 6 15.5 16.5t19.5 20.5q10 12 25 26l108 -98q-18 -18 -35 -37l-31 -32l-28 -29q-25 -25 -54.5 -39t-64.5 -14q-57 0 -106 39l-66 53q-16 12 -32.5 12t-32.5 -16l-22 -22l-21 -21q-12 -12 -23 -25z" />
<glyph unicode="&#xf2;" d="M123 215v541q0 45 16.5 84t45 67.5t67.5 46t84 17.5h389q45 0 85 -17.5t68.5 -46t46 -67.5t17.5 -84v-541q0 -45 -17.5 -84t-46 -68.5t-68.5 -46t-85 -16.5h-389q-45 0 -84 16.5t-67.5 46t-45 68.5t-16.5 84zM299 1311l109 127l258 -226l-107 -125zM358 268 q0 -23 16.5 -38t39.5 -15h237q23 0 39.5 15.5t16.5 37.5v434q0 23 -16.5 38.5t-39.5 15.5h-237q-23 0 -39.5 -15.5t-16.5 -38.5v-434z" />
<glyph unicode="&#xf3;" d="M123 215v541q0 45 16.5 84t45 67.5t67.5 46t84 17.5h389q45 0 85 -17.5t68.5 -46t46 -67.5t17.5 -84v-541q0 -45 -17.5 -84t-46 -68.5t-68.5 -46t-85 -16.5h-389q-45 0 -84 16.5t-67.5 46t-45 68.5t-16.5 84zM358 268q0 -23 16.5 -38t39.5 -15h237q23 0 39.5 15.5 t16.5 37.5v434q0 23 -16.5 38.5t-39.5 15.5h-237q-23 0 -39.5 -15.5t-16.5 -38.5v-434zM395 1212l258 226l109 -127l-260 -224z" />
<glyph unicode="&#xf4;" d="M123 215v541q0 45 16.5 84t45 67.5t67.5 46t84 17.5h389q45 0 85 -17.5t68.5 -46t46 -67.5t17.5 -84v-541q0 -45 -17.5 -84t-46 -68.5t-68.5 -46t-85 -16.5h-389q-45 0 -84 16.5t-67.5 46t-45 68.5t-16.5 84zM266 1194l269 250l266 -250l-99 -111l-167 158l-170 -158z M358 268q0 -23 16.5 -38t39.5 -15h237q23 0 39.5 15.5t16.5 37.5v434q0 23 -16.5 38.5t-39.5 15.5h-237q-23 0 -39.5 -15.5t-16.5 -38.5v-434z" />
<glyph unicode="&#xf5;" d="M123 215v541q0 45 16.5 84t45 67.5t67.5 46t84 17.5h389q45 0 85 -17.5t68.5 -46t46 -67.5t17.5 -84v-541q0 -45 -17.5 -84t-46 -68.5t-68.5 -46t-85 -16.5h-389q-45 0 -84 16.5t-67.5 46t-45 68.5t-16.5 84zM248 1214q14 18 33 37l31 34l34 34q51 55 117 55 q59 0 104 -41l68 -57q14 -14 35 -14q16 0 35 18q6 6 15 16.5t19 20.5q10 12 25 26l108 -98q-18 -18 -34 -37l-32 -32l-28 -29q-25 -25 -54.5 -39t-64.5 -14q-57 0 -106 39l-66 53q-16 12 -32.5 12t-32.5 -16l-22 -22l-21 -21q-12 -12 -23 -25zM358 268q0 -23 16.5 -38 t39.5 -15h237q23 0 39.5 15.5t16.5 37.5v434q0 23 -16.5 38.5t-39.5 15.5h-237q-23 0 -39.5 -15.5t-16.5 -38.5v-434z" />
<glyph unicode="&#xf6;" d="M123 215v541q0 45 16.5 84t45 67.5t67.5 46t84 17.5h389q45 0 85 -17.5t68.5 -46t46 -67.5t17.5 -84v-541q0 -45 -17.5 -84t-46 -68.5t-68.5 -46t-85 -16.5h-389q-45 0 -84 16.5t-67.5 46t-45 68.5t-16.5 84zM248 1120v236h198v-236h-198zM358 268q0 -23 16.5 -38 t39.5 -15h237q23 0 39.5 15.5t16.5 37.5v434q0 23 -16.5 38.5t-39.5 15.5h-237q-23 0 -39.5 -15.5t-16.5 -38.5v-434zM621 1120v236h198v-236h-198z" />
<glyph unicode="&#xf7;" horiz-adv-x="1052" d="M92 565v195h869v-195h-869zM393 135v258h266v-258h-266zM393 932v258h266v-258h-266z" />
<glyph unicode="&#xf8;" d="M123 215v541q0 45 16.5 84t45 67.5t67.5 46t84 17.5h389q16 0 30.5 -2t28.5 -6l74 110l84 -55l-70 -105q33 -29 51.5 -69.5t18.5 -87.5v-541q0 -45 -17.5 -84t-46 -68.5t-68.5 -46t-85 -16.5h-389q-31 0 -57 6l-72 -108l-84 55l67 102q-31 29 -49 71t-18 89zM358 311 l291 445h-235q-23 0 -39.5 -15.5t-16.5 -38.5v-391zM414 215h237q23 0 39.5 15.5t16.5 37.5v391z" />
<glyph unicode="&#xf9;" horiz-adv-x="1075" d="M133 195v776h236v-707q0 -23 14 -38t41 -15q18 0 48 7t61.5 17.5l60.5 20.5l47 16q29 10 42 33t13 49v617h236v-971h-225v74l-80 -30.5t-94.5 -31t-97.5 -23.5t-85 -9q-104 0 -160.5 62.5t-56.5 152.5zM317 1311l109 127l258 -226l-106 -125z" />
<glyph unicode="&#xfa;" horiz-adv-x="1075" d="M133 195v776h236v-707q0 -23 14 -38t41 -15q18 0 48 7t61.5 17.5l60.5 20.5l47 16q29 10 42 33t13 49v617h236v-971h-225v74l-80 -30.5t-94.5 -31t-97.5 -23.5t-85 -9q-104 0 -160.5 62.5t-56.5 152.5zM391 1212l258 226l109 -127l-260 -224z" />
<glyph unicode="&#xfb;" horiz-adv-x="1075" d="M133 195v776h236v-707q0 -23 14 -38t41 -15q18 0 48 7t61.5 17.5l60.5 20.5l47 16q29 10 42 33t13 49v617h236v-971h-225v74l-80 -30.5t-94.5 -31t-97.5 -23.5t-85 -9q-104 0 -160.5 62.5t-56.5 152.5zM268 1194l269 250l266 -250l-98 -111l-168 158l-170 -158z" />
<glyph unicode="&#xfc;" horiz-adv-x="1075" d="M133 195v776h236v-707q0 -23 14 -38t41 -15q18 0 48 7t61.5 17.5l60.5 20.5l47 16q29 10 42 33t13 49v617h236v-971h-225v74l-80 -30.5t-94.5 -31t-97.5 -23.5t-85 -9q-104 0 -160.5 62.5t-56.5 152.5zM258 1120v236h199v-236h-199zM631 1120v236h198v-236h-198z" />
<glyph unicode="&#xfd;" horiz-adv-x="917" d="M20 971h244l195 -668l196 668h246l-442 -1360h-228l111 391zM330 1212l258 226l108 -127l-260 -224z" />
<glyph unicode="&#xfe;" d="M143 -389v1753h236v-459l80 28q45 15 91 28.5t92 21.5t83 8q104 0 160.5 -62.5t56.5 -152.5v-581q0 -90 -56.5 -152.5t-160.5 -62.5q-37 0 -83 8t-92 21.5t-91 28.5l-80 28v-455h-236zM379 332q0 -47 55 -68q18 -6 47 -17t60.5 -20.5t61.5 -16.5t48 -7q27 0 41.5 15 t14.5 38v459q0 23 -14.5 38t-41.5 15q-18 0 -48 -7t-61.5 -16.5t-60 -20.5t-47.5 -17q-55 -20 -55 -68v-307z" />
<glyph unicode="&#xff;" horiz-adv-x="911" d="M20 971h244l195 -668l196 668h246l-442 -1360h-228l111 391zM182 1120v236h199v-236h-199zM555 1120v236h199v-236h-199z" />
<glyph unicode="&#x152;" horiz-adv-x="1771" d="M143 225v914q0 47 17.5 88t47.5 71.5t70.5 48t88.5 17.5h1292v-225h-582v-338h531v-226h-531v-350h582v-225h-1292q-47 0 -88 17.5t-71 48t-47.5 71.5t-17.5 88zM389 279q0 -23 16.5 -38.5t38.5 -15.5h387v914h-387q-23 0 -39 -15.5t-16 -38.5v-806z" />
<glyph unicode="&#x153;" horiz-adv-x="1599" d="M123 215v541q0 45 16.5 84t45 67.5t67.5 46t84 17.5h389q29 0 55.5 -14.5t42.5 -32.5q14 16 41 31.5t56 15.5h354q45 0 84 -17.5t67.5 -46t45 -67.5t16.5 -84v-336h-545v-160q0 -23 16.5 -38t38.5 -15h205q23 0 39 15.5t16 37.5v39h228v-88q0 -90 -60.5 -150.5 t-152.5 -60.5h-352q-29 0 -54.5 14.5t-42.5 28.5q-18 -16 -43.5 -29.5t-54.5 -13.5h-389q-45 0 -84 16.5t-67.5 46t-45 68.5t-16.5 84zM358 268q0 -23 16.5 -38t39.5 -15h237q23 0 39.5 15.5t16.5 37.5v441q-4 23 -18.5 35t-37.5 12h-237q-23 0 -39.5 -15.5t-16.5 -38.5 v-434zM942 614h318v99q0 23 -16.5 38t-39.5 15h-207q-23 0 -38 -12.5t-17 -34.5v-105z" />
<glyph unicode="&#x178;" horiz-adv-x="1056" d="M0 1364h260l268 -543l269 543h260l-406 -815v-549h-245v549zM244 1501v236h198v-236h-198zM616 1501v236h199v-236h-199z" />
<glyph unicode="&#x2c6;" horiz-adv-x="944" d="M205 1194l268 250l266 -250l-98 -111l-168 158l-170 -158z" />
<glyph unicode="&#x2dc;" horiz-adv-x="1034" d="M205 1214q14 18 33 37l31 34l34 34q51 55 117 55q59 0 104 -41l68 -57q14 -14 35 -14q16 0 34 18q6 6 15.5 16.5t19.5 20.5q10 12 25 26l108 -98q-18 -18 -34 -37l-32 -32l-28 -29q-25 -25 -54.5 -39t-64.5 -14q-57 0 -106 39l-66 53q-16 12 -32.5 12t-32.5 -16l-22 -22 l-21 -21q-12 -12 -23 -25z" />
<glyph unicode="&#x2013;" horiz-adv-x="925" d="M82 487v205h762v-205h-762z" />
<glyph unicode="&#x2014;" horiz-adv-x="1191" d="M82 487v205h1028v-205h-1028z" />
<glyph unicode="&#x2018;" horiz-adv-x="483" d="M113 850v280l153 254l109 -69l-111 -185h115v-280h-266z" />
<glyph unicode="&#x2019;" horiz-adv-x="481" d="M102 1083v281h267v-281l-154 -254l-109 70l111 184h-115z" />
<glyph unicode="&#x201a;" horiz-adv-x="493" d="M115 0v281h266v-281l-154 -254l-108 70l110 184h-114z" />
<glyph unicode="&#x201c;" horiz-adv-x="890" d="M113 850v280l153 254l109 -69l-111 -185h115v-280h-266zM520 850v280l154 254l108 -69l-110 -185h114v-280h-266z" />
<glyph unicode="&#x201d;" horiz-adv-x="890" d="M104 1083v281h267v-281l-154 -254l-108 70l110 184h-115zM512 1083v281h266v-281l-153 -254l-109 70l111 184h-115z" />
<glyph unicode="&#x201e;" horiz-adv-x="901" d="M115 0v281h266v-281l-154 -254l-108 70l110 184h-114zM522 0v281h266v-281l-153 -254l-109 70l111 184h-115z" />
<glyph unicode="&#x2022;" horiz-adv-x="737" d="M133 655.5q0 49.5 18.5 91t51.5 74.5t74.5 51.5t91 18.5t91.5 -18.5t74.5 -51.5t51 -74.5t18.5 -91t-18.5 -91.5t-51 -74.5t-74.5 -51t-91.5 -18.5t-91 18.5t-74.5 51t-51.5 74.5t-18.5 91.5z" />
<glyph unicode="&#x2026;" horiz-adv-x="1658" d="M143 0v281h267v-281h-267zM696 0v281h267v-281h-267zM1249 0v281h267v-281h-267z" />
<glyph unicode="&#x2039;" horiz-adv-x="643" d="M82 487l270 410l158 -98l-207 -312l207 -309l-158 -96z" />
<glyph unicode="&#x203a;" horiz-adv-x="643" d="M133 178l207 309l-207 312l158 98l270 -410l-270 -405z" />
<glyph unicode="&#x20ac;" horiz-adv-x="1196" d="M100 451v157h136v148h-136v157h136v236q0 45 16 84t45 67.5t67.5 46t84.5 17.5h387q45 0 85 -17.5t68.5 -46t46 -67.5t17.5 -84v-184h-228v135q0 23 -16 38t-39 15h-244q-23 0 -39 -15.5t-16 -37.5v-187h244v-157h-244v-148h244v-157h-244v-187q0 -23 16.5 -38t38.5 -15 h244q23 0 39 15.5t16 37.5v137h228v-186q0 -45 -17.5 -84t-46 -68.5t-68.5 -46t-85 -16.5h-387q-45 0 -84 16.5t-68 46t-45 68.5t-16 84v236h-136z" />
<glyph unicode="&#x2122;" horiz-adv-x="1380" d="M113 1249v115h467v-115h-172v-495h-123v495h-172zM676 754v610h119l166 -354l167 354h119v-610h-121v352l-112 -252h-105l-112 252v-352h-121z" />
<glyph unicode="&#xe000;" horiz-adv-x="970" d="M0 970h970v-970h-970v970z" />
<glyph unicode="&#xfb01;" horiz-adv-x="1261" d="M61 774v197h136v192q0 45 16 84t45 67.5t68 46t84 17.5h268v-204h-191q-23 0 -39 -15.5t-16 -38.5v-149h236v-197h-236v-774h-235v774h-136zM872 0v971h236v-971h-236zM872 1116v262h236v-262h-236z" />
<glyph unicode="&#xfb02;" horiz-adv-x="1251" d="M61 774v197h136v178q0 45 16 84t45 67.5t68 46t84 17.5h268v-205h-191q-23 0 -39 -15.5t-16 -37.5v-135h236v-197h-236v-774h-235v774h-136zM872 0v1364l236 41v-1405h-236z" />
<glyph unicode="&#xfb03;" horiz-adv-x="1959" d="M61 774v197h136v178q0 45 16 84t45 67.5t68 46t84 17.5h268v-205h-191q-23 0 -39 -15.5t-16 -37.5v-135h236v-197h-236v-774h-235v774h-136zM780 774v197h135v178q0 45 16.5 84t45.5 67.5t67.5 46t83.5 17.5h269v-205h-191q-23 0 -39 -15.5t-16 -37.5v-135h235v-197h-235 v-774h-236v774h-135zM1581 0v971h236v-971h-236zM1581 1116v262h236v-262h-236z" />
<glyph unicode="&#xfb04;" horiz-adv-x="1959" d="M61 774v197h136v178q0 45 16 84t45 67.5t68 46t84 17.5h268v-205h-191q-23 0 -39 -15.5t-16 -37.5v-135h236v-197h-236v-774h-235v774h-136zM780 774v197h135v178q0 45 16.5 84t45.5 67.5t67.5 46t83.5 17.5h269v-205h-191q-23 0 -39 -15.5t-16 -37.5v-135h235v-197h-235 v-774h-236v774h-135zM1581 0v1364h236v-1364h-236z" />
</font>
</defs>
</svg>
